<svg id="svg" version="1.1" xmlns="http://www.w3.org/2000/svg" xmlns:xlink="http://www.w3.org/1999/xlink" width="400" height="320" viewBox="0, 0, 400,320"><g id="svgg"><path id="path0" d="M134.720 46.139 C 134.720 46.347,134.451 47.103,134.122 47.819 C 133.794 48.535,133.283 49.660,132.987 50.320 C 132.692 50.980,132.313 51.520,132.145 51.520 C 131.977 51.520,131.831 51.772,131.820 52.080 C 131.809 52.388,131.413 53.386,130.940 54.298 C 130.467 55.211,129.372 57.371,128.507 59.098 C 127.641 60.826,126.597 62.777,126.187 63.434 C 125.776 64.090,125.440 64.834,125.440 65.087 C 125.440 65.340,125.332 65.595,125.200 65.653 C 125.068 65.712,124.188 67.272,123.244 69.120 C 122.300 70.968,120.736 74.028,119.768 75.920 C 118.800 77.812,117.880 79.360,117.724 79.360 C 117.568 79.360,117.440 79.583,117.440 79.856 C 117.440 80.482,116.506 82.325,116.035 82.629 C 115.840 82.755,115.666 83.043,115.650 83.269 C 115.596 84.006,114.958 85.297,114.433 85.732 C 114.151 85.967,113.909 86.393,113.897 86.679 C 113.884 86.966,113.597 87.632,113.260 88.160 C 112.923 88.688,112.558 89.336,112.449 89.600 C 111.692 91.437,111.290 92.160,111.025 92.160 C 110.857 92.160,110.720 92.426,110.720 92.751 C 110.720 93.941,109.728 95.382,108.777 95.573 C 107.435 95.841,107.013 99.550,108.270 100.022 C 109.294 100.407,257.920 100.306,257.920 99.920 C 257.920 99.360,259.989 99.408,260.462 99.979 C 260.671 100.231,261.089 100.418,261.391 100.396 C 263.101 100.267,268.570 104.567,269.648 106.887 C 271.998 111.947,272.576 115.026,271.823 118.463 C 271.286 120.916,270.596 122.721,270.071 123.045 C 269.900 123.151,269.760 123.490,269.760 123.799 C 269.760 124.107,269.472 124.668,269.120 125.046 C 268.768 125.424,268.480 125.867,268.480 126.029 C 268.480 126.298,267.557 127.171,265.128 129.200 C 264.654 129.596,264.056 129.920,263.799 129.920 C 263.543 129.920,263.030 130.203,262.659 130.548 C 260.538 132.524,261.247 132.491,222.560 132.402 L 187.360 132.320 187.384 131.611 C 187.403 131.060,187.260 130.929,186.744 131.027 C 186.379 131.096,185.992 131.163,185.885 131.176 C 185.778 131.189,185.690 132.316,185.691 133.680 C 185.691 135.044,185.754 135.908,185.829 135.600 C 186.177 134.185,187.501 135.031,189.209 137.760 C 189.759 138.640,191.153 140.800,192.305 142.560 C 193.457 144.320,194.612 146.192,194.870 146.720 C 195.129 147.248,195.741 148.205,196.230 148.846 C 196.720 149.487,197.120 150.171,197.120 150.366 C 197.120 150.561,197.248 150.720,197.405 150.720 C 197.562 150.720,197.916 151.284,198.192 151.973 C 198.467 152.662,198.848 153.321,199.037 153.438 C 199.225 153.555,200.469 155.331,201.801 157.385 C 203.133 159.439,204.640 161.736,205.151 162.489 C 205.662 163.243,206.080 163.949,206.080 164.060 C 206.080 164.171,206.944 165.524,208.000 167.065 C 209.056 168.607,209.920 170.051,209.920 170.274 C 209.920 170.496,210.228 171.007,210.605 171.407 C 211.309 172.157,211.511 172.467,212.686 174.597 C 213.063 175.280,213.675 176.114,214.046 176.450 C 214.417 176.785,214.720 177.175,214.720 177.316 C 214.720 177.457,215.476 178.718,216.400 180.118 C 218.102 182.697,219.601 185.045,220.103 185.920 C 220.255 186.184,220.510 186.630,220.670 186.912 C 220.829 187.194,221.389 188.058,221.913 188.832 C 223.142 190.646,223.565 191.337,224.048 192.320 C 224.264 192.760,224.792 193.507,225.221 193.980 C 225.650 194.452,226.162 195.120,226.360 195.463 C 227.746 197.867,229.763 201.058,230.788 202.466 C 231.454 203.383,232.000 204.222,232.000 204.331 C 232.000 204.440,232.685 205.562,233.521 206.824 C 234.358 208.087,235.252 209.552,235.507 210.080 C 235.762 210.608,236.249 211.359,236.590 211.748 C 237.236 212.487,237.466 212.849,238.617 214.938 C 239.000 215.634,239.542 216.393,239.823 216.625 C 240.103 216.858,240.552 217.513,240.822 218.081 C 241.091 218.649,241.557 219.386,241.856 219.719 C 242.155 220.051,242.751 220.971,243.180 221.762 C 243.609 222.553,244.410 223.848,244.960 224.640 C 245.510 225.432,246.301 226.692,246.719 227.440 C 247.136 228.188,247.579 228.800,247.702 228.800 C 247.825 228.800,248.016 229.052,248.128 229.360 C 248.371 230.032,248.871 230.867,249.840 232.216 C 250.236 232.768,250.560 233.342,250.560 233.493 C 250.560 233.643,250.884 234.132,251.280 234.578 C 251.676 235.025,252.216 235.764,252.480 236.221 C 252.744 236.678,253.500 237.862,254.160 238.852 C 254.820 239.842,255.360 240.728,255.360 240.820 C 255.360 240.912,255.936 241.767,256.640 242.720 C 257.344 243.673,257.920 244.535,257.920 244.637 C 257.920 244.738,258.543 245.788,259.303 246.970 C 261.493 250.373,261.760 250.835,261.760 251.223 C 261.760 251.424,262.120 251.871,262.560 252.217 C 263.000 252.563,263.363 253.016,263.366 253.223 C 263.372 253.613,264.742 255.789,266.000 257.406 C 266.396 257.915,266.792 258.491,266.880 258.686 C 266.968 258.881,267.560 259.832,268.195 260.800 C 271.278 265.497,272.491 267.387,272.610 267.680 C 272.682 267.856,273.376 268.969,274.154 270.152 C 275.149 271.667,275.507 272.497,275.362 272.952 C 275.188 273.502,275.293 273.595,276.058 273.568 C 276.927 273.537,276.932 273.528,276.190 273.321 C 275.461 273.117,275.449 273.076,275.973 272.553 C 276.764 271.762,336.541 271.689,336.844 272.478 C 337.200 273.407,337.600 272.581,337.588 270.941 C 337.576 269.426,337.486 269.223,336.551 268.636 C 335.988 268.281,335.473 267.705,335.407 267.356 C 335.340 267.006,335.195 266.648,335.083 266.560 C 334.899 266.415,333.571 264.430,331.977 261.920 C 331.642 261.392,331.222 260.737,331.044 260.464 C 330.866 260.192,330.432 259.491,330.080 258.907 C 329.728 258.323,328.612 256.569,327.600 255.009 C 326.588 253.449,325.760 252.027,325.760 251.849 C 325.760 251.671,325.328 251.140,324.800 250.670 C 324.272 250.199,323.840 249.633,323.840 249.412 C 323.840 249.190,323.516 248.601,323.120 248.102 C 322.358 247.142,322.005 246.604,320.954 244.800 C 320.596 244.184,320.054 243.307,319.751 242.851 C 319.448 242.395,318.804 241.426,318.320 240.697 C 317.836 239.969,317.440 239.226,317.440 239.046 C 317.440 238.867,317.329 238.720,317.193 238.720 C 317.058 238.720,316.593 238.072,316.160 237.280 C 315.727 236.488,315.298 235.840,315.205 235.840 C 315.112 235.840,314.833 235.372,314.584 234.800 C 314.336 234.228,313.861 233.400,313.529 232.960 C 312.337 231.379,311.360 229.723,311.360 229.284 C 311.360 229.038,311.088 228.646,310.755 228.413 C 310.422 228.180,309.882 227.533,309.555 226.976 C 309.228 226.418,308.395 225.125,307.705 224.101 C 307.015 223.078,306.187 221.850,305.865 221.373 C 305.543 220.896,305.280 220.302,305.280 220.052 C 305.280 219.803,305.054 219.411,304.779 219.182 C 304.063 218.588,301.440 214.466,301.440 213.935 C 301.440 213.690,301.076 213.057,300.632 212.529 C 300.187 212.001,299.863 211.443,299.912 211.290 C 299.960 211.137,299.388 210.429,298.640 209.716 C 297.838 208.951,297.280 208.128,297.280 207.709 C 297.280 207.313,296.856 206.642,296.320 206.191 C 295.792 205.747,295.360 205.180,295.360 204.932 C 295.360 204.683,295.216 204.480,295.040 204.480 C 294.864 204.480,294.720 204.329,294.720 204.146 C 294.720 203.962,294.022 202.774,293.169 201.506 C 292.317 200.237,291.560 199.056,291.489 198.880 C 291.418 198.704,290.676 197.527,289.840 196.264 C 289.004 195.001,288.320 193.741,288.320 193.464 C 288.320 193.187,288.196 192.960,288.045 192.960 C 287.738 192.960,285.120 189.032,285.120 188.572 C 285.120 188.411,284.688 187.866,284.160 187.360 C 283.632 186.854,283.200 186.327,283.200 186.188 C 283.200 186.049,282.552 184.969,281.760 183.788 C 279.796 180.859,279.834 180.660,282.320 180.911 C 283.591 181.040,284.151 181.006,283.855 180.818 C 283.600 180.655,283.292 180.583,283.171 180.658 C 283.051 180.732,282.972 180.544,282.996 180.241 C 283.024 179.884,284.073 179.166,285.956 178.215 C 289.741 176.305,293.953 173.744,296.960 171.527 C 298.280 170.554,299.746 169.509,300.218 169.205 C 301.601 168.316,309.144 160.497,309.674 159.404 C 309.940 158.854,310.716 157.899,311.399 157.283 C 312.082 156.666,312.640 156.011,312.640 155.828 C 312.640 155.644,312.955 155.032,313.339 154.467 C 314.853 152.243,315.163 151.738,316.000 150.138 C 316.477 149.226,316.965 148.480,317.084 148.480 C 317.203 148.480,317.493 147.828,317.728 147.032 C 317.963 146.235,318.445 145.380,318.800 145.132 C 319.154 144.884,319.365 144.476,319.269 144.225 C 319.173 143.974,319.499 142.966,319.994 141.985 C 320.489 141.004,320.827 140.134,320.745 140.051 C 320.663 139.969,320.749 139.636,320.935 139.311 C 321.669 138.035,322.232 136.144,323.206 131.680 C 323.986 128.103,324.191 127.600,324.904 127.495 C 325.297 127.438,325.342 127.577,325.118 128.166 C 324.915 128.700,324.966 129.019,325.297 129.294 C 325.692 129.622,325.760 129.392,325.760 127.719 C 325.760 126.642,325.623 125.760,325.455 125.760 C 324.802 125.760,324.574 123.522,324.819 119.503 C 324.958 117.224,324.952 113.630,324.806 111.516 C 324.510 107.251,324.631 105.953,325.378 105.360 C 325.741 105.072,325.764 104.960,325.462 104.960 C 325.130 104.960,325.123 104.862,325.428 104.494 C 325.935 103.884,325.546 103.283,324.799 103.520 C 324.126 103.734,324.218 103.976,323.017 98.880 C 322.540 96.856,321.954 94.746,321.715 94.192 C 321.476 93.637,321.280 93.023,321.280 92.827 C 321.280 92.632,321.148 92.221,320.987 91.916 C 320.726 91.420,320.129 90.027,319.380 88.160 C 318.367 85.638,315.178 79.651,314.081 78.213 C 313.640 77.635,313.280 77.029,313.280 76.866 C 313.280 76.703,312.730 75.938,312.058 75.165 C 311.386 74.392,310.386 73.112,309.836 72.320 C 308.107 69.831,302.322 63.800,301.376 63.500 C 301.059 63.399,300.800 63.200,300.800 63.057 C 300.800 62.914,300.031 62.216,299.091 61.507 C 298.151 60.797,297.167 60.001,296.903 59.738 C 296.640 59.474,295.573 58.718,294.532 58.057 C 293.492 57.396,292.568 56.756,292.480 56.635 C 292.392 56.514,291.744 56.145,291.040 55.817 C 290.336 55.488,289.513 54.926,289.211 54.569 C 288.909 54.212,288.657 54.031,288.651 54.167 C 288.638 54.470,286.200 53.254,285.923 52.805 C 285.812 52.626,285.473 52.480,285.169 52.480 C 284.864 52.480,284.050 52.192,283.360 51.840 C 282.670 51.488,281.910 51.200,281.673 51.200 C 281.435 51.200,280.493 50.854,279.580 50.432 C 278.667 50.009,276.912 49.419,275.680 49.120 C 274.448 48.821,273.296 48.465,273.120 48.330 C 272.944 48.194,271.792 47.915,270.560 47.709 C 269.328 47.503,267.168 47.123,265.760 46.866 C 264.352 46.608,262.652 46.398,261.981 46.399 C 261.250 46.399,260.841 46.272,260.960 46.080 C 261.092 45.867,240.003 45.760,197.939 45.760 C 149.448 45.760,134.720 45.848,134.720 46.139 M271.680 46.524 C 271.680 46.592,272.104 46.710,272.623 46.786 C 273.142 46.862,273.493 46.806,273.404 46.662 C 273.246 46.406,271.680 46.280,271.680 46.524 M89.373 131.827 C 89.641 132.536,89.553 132.974,88.884 134.266 C 88.436 135.131,87.834 136.344,87.546 136.960 C 87.258 137.576,86.882 138.332,86.711 138.640 C 85.995 139.930,85.740 140.420,84.756 142.400 C 84.188 143.544,83.605 144.528,83.462 144.587 C 83.318 144.645,83.200 144.984,83.200 145.338 C 83.200 145.693,82.748 146.405,82.196 146.921 C 81.644 147.437,81.278 147.945,81.383 148.050 C 81.594 148.261,80.803 149.964,80.144 150.720 C 79.914 150.984,79.717 151.309,79.706 151.442 C 79.654 152.107,78.710 153.920,78.416 153.920 C 78.231 153.920,78.080 154.200,78.080 154.541 C 78.080 154.883,77.936 155.251,77.760 155.360 C 77.584 155.469,77.440 155.822,77.440 156.145 C 77.440 156.467,77.224 156.814,76.960 156.916 C 76.696 157.017,76.480 157.464,76.480 157.910 C 76.480 158.355,76.336 158.720,76.160 158.720 C 75.984 158.720,75.840 159.008,75.840 159.360 C 75.840 159.712,75.716 160.000,75.563 160.000 C 75.411 160.000,75.029 160.684,74.714 161.520 C 74.399 162.356,73.947 163.155,73.710 163.296 C 73.474 163.437,73.280 163.824,73.280 164.157 C 73.280 164.490,73.136 164.851,72.960 164.960 C 72.784 165.069,72.640 165.432,72.640 165.768 C 72.640 166.103,72.352 166.532,72.000 166.720 C 71.644 166.911,71.360 167.390,71.360 167.802 C 71.360 168.208,71.075 168.798,70.728 169.113 C 70.380 169.428,70.178 169.819,70.279 169.983 C 70.380 170.146,70.262 170.523,70.018 170.820 C 69.773 171.117,69.382 171.792,69.149 172.320 C 68.916 172.848,68.604 173.496,68.455 173.760 C 68.307 174.024,67.672 175.248,67.045 176.480 C 66.419 177.712,65.781 178.936,65.628 179.200 C 65.475 179.464,65.085 180.221,64.761 180.882 C 64.438 181.543,63.918 182.165,63.606 182.263 C 63.171 182.402,63.040 182.789,63.040 183.942 L 63.040 185.440 121.972 185.357 C 175.558 185.282,180.976 185.321,181.687 185.787 C 182.306 186.193,182.545 186.217,182.834 185.903 C 183.114 185.599,183.088 185.545,182.720 185.672 C 182.379 185.790,182.222 185.587,182.177 184.971 C 182.142 184.495,181.314 182.917,180.337 181.465 C 179.360 180.013,178.560 178.721,178.560 178.593 C 178.560 178.465,178.308 178.074,178.000 177.723 C 177.245 176.863,176.717 176.034,176.172 174.855 C 175.922 174.313,175.493 173.683,175.218 173.455 C 174.944 173.228,174.720 172.796,174.720 172.497 C 174.720 172.197,174.360 171.613,173.920 171.200 C 173.480 170.787,173.120 170.314,173.120 170.150 C 173.120 169.986,172.760 169.425,172.320 168.902 C 171.880 168.379,171.520 167.731,171.520 167.462 C 171.520 167.192,171.160 166.689,170.720 166.343 C 170.280 165.997,169.920 165.587,169.920 165.433 C 169.920 165.072,167.947 162.114,167.613 161.973 C 167.474 161.915,167.360 161.691,167.360 161.477 C 167.360 161.263,166.748 160.177,166.000 159.065 C 163.609 155.510,162.900 154.415,162.567 153.760 C 162.078 152.798,161.519 151.945,160.720 150.938 C 160.324 150.439,160.000 149.811,160.000 149.542 C 160.000 149.272,159.640 148.769,159.200 148.423 C 158.760 148.077,158.400 147.654,158.400 147.483 C 158.400 147.312,157.824 146.393,157.120 145.440 C 156.416 144.487,155.840 143.497,155.840 143.240 C 155.840 142.983,155.732 142.725,155.600 142.667 C 155.340 142.551,152.938 139.027,152.583 138.240 C 152.464 137.976,151.861 137.040,151.243 136.160 C 150.625 135.280,149.727 133.804,149.247 132.880 C 148.501 131.441,147.520 130.632,147.520 131.456 C 147.520 132.703,93.655 133.124,91.450 131.895 C 89.555 130.838,88.993 130.820,89.373 131.827 M105.704 131.120 C 113.241 131.168,125.481 131.168,132.904 131.120 C 140.327 131.072,134.160 131.033,119.200 131.033 C 104.240 131.033,98.167 131.072,105.704 131.120 M64.080 220.319 C 63.383 221.110,63.430 221.243,66.279 226.500 C 66.785 227.435,67.200 228.359,67.200 228.555 C 67.200 228.750,67.397 229.137,67.638 229.415 C 68.073 229.916,69.860 233.222,73.189 239.680 C 75.210 243.600,75.286 243.747,75.846 244.800 C 76.080 245.240,77.051 247.112,78.005 248.960 C 78.959 250.808,80.079 252.968,80.493 253.760 C 80.908 254.552,81.810 256.352,82.497 257.760 C 84.997 262.883,88.730 269.923,89.001 270.027 C 89.155 270.085,89.280 270.401,89.280 270.728 C 89.280 271.055,89.424 271.411,89.600 271.520 C 89.776 271.629,89.925 272.033,89.930 272.419 C 89.959 274.405,83.239 274.240,164.138 274.240 C 240.857 274.240,238.155 274.283,238.491 273.051 C 238.529 272.913,238.668 272.836,238.800 272.880 C 239.519 273.120,238.878 272.378,237.920 271.862 C 237.304 271.531,236.800 271.137,236.800 270.988 C 236.800 270.839,235.900 269.381,234.800 267.749 C 233.700 266.116,232.656 264.533,232.480 264.231 C 231.985 263.381,228.563 258.072,226.498 254.950 C 225.476 253.404,224.640 252.030,224.640 251.897 C 224.640 251.765,224.214 251.157,223.693 250.548 C 223.172 249.939,222.740 249.338,222.733 249.214 C 222.726 249.089,221.439 247.001,219.874 244.574 C 218.309 242.146,216.524 239.368,215.907 238.400 C 215.291 237.432,213.763 235.061,212.513 233.132 C 211.263 231.203,210.240 229.456,210.240 229.251 C 210.240 229.046,210.025 228.700,209.763 228.483 C 209.281 228.083,206.720 224.457,206.720 224.175 C 206.720 224.091,206.293 223.350,205.772 222.528 C 205.036 221.367,204.895 220.900,205.143 220.436 C 205.577 219.626,64.794 219.508,64.080 220.319 M306.720 273.282 L 276.960 273.448 306.975 273.518 C 326.512 273.563,336.922 273.478,336.796 273.274 C 336.689 273.101,336.575 272.995,336.541 273.038 C 336.508 273.080,323.088 273.190,306.720 273.282 " stroke="none" fill="#848484" fill-rule="evenodd"></path><path id="path1" d="M132.618 46.116 C 132.497 46.311,132.595 46.593,132.836 46.742 C 133.185 46.958,133.194 47.094,132.877 47.411 C 132.659 47.629,132.480 48.084,132.480 48.421 C 132.480 48.910,132.310 49.002,131.643 48.875 C 130.824 48.718,130.809 48.746,130.964 50.126 C 131.131 51.601,130.632 52.270,129.631 51.914 C 129.307 51.798,129.232 51.943,129.362 52.437 C 129.460 52.813,129.431 53.120,129.297 53.120 C 128.583 53.120,127.354 54.747,127.533 55.456 C 127.737 56.269,127.097 57.048,126.354 56.891 C 125.756 56.765,125.560 59.196,126.138 59.563 C 126.444 59.757,126.380 59.832,125.904 59.835 C 124.954 59.842,124.480 60.457,124.480 61.685 C 124.480 62.485,124.237 62.966,123.532 63.559 C 122.765 64.205,122.618 64.531,122.765 65.265 C 122.919 66.033,122.806 66.240,122.033 66.609 C 121.276 66.971,121.103 67.273,121.023 68.383 C 120.936 69.569,120.827 69.732,120.063 69.820 C 119.092 69.932,118.712 71.059,119.375 71.858 C 119.863 72.447,119.255 73.280,118.336 73.280 C 117.801 73.280,117.725 73.471,117.807 74.607 C 117.888 75.731,117.794 75.973,117.191 76.196 C 116.800 76.341,116.458 76.716,116.431 77.030 C 116.295 78.629,115.801 79.697,115.241 79.605 C 114.845 79.540,114.743 79.737,114.816 80.427 C 114.869 80.927,114.749 81.532,114.549 81.773 C 114.349 82.015,114.271 82.352,114.377 82.523 C 114.483 82.694,114.243 82.881,113.845 82.937 C 113.242 83.023,113.104 83.267,113.022 84.384 C 112.946 85.442,112.775 85.775,112.222 85.947 C 111.326 86.227,110.989 86.753,111.394 87.241 C 111.605 87.495,111.599 87.692,111.376 87.830 C 111.191 87.944,111.040 88.376,111.040 88.789 C 111.040 89.383,110.906 89.505,110.400 89.373 C 109.822 89.222,109.760 89.363,109.760 90.837 C 109.760 92.280,109.674 92.489,109.011 92.656 C 108.148 92.873,107.991 95.200,108.839 95.200 C 109.312 95.200,110.360 93.302,110.385 92.400 C 110.393 92.092,110.616 91.840,110.880 91.840 C 111.144 91.840,111.360 91.622,111.360 91.356 C 111.360 90.910,111.668 90.184,112.378 88.960 C 112.531 88.696,112.961 87.832,113.333 87.040 C 113.705 86.248,114.134 85.552,114.285 85.493 C 114.436 85.435,114.560 85.119,114.560 84.792 C 114.560 84.465,114.704 84.109,114.880 84.000 C 115.056 83.891,115.200 83.524,115.200 83.184 C 115.200 82.844,115.488 82.386,115.840 82.166 C 116.192 81.946,116.480 81.521,116.480 81.222 C 116.480 80.923,116.634 80.583,116.822 80.467 C 117.010 80.350,117.087 80.056,116.994 79.813 C 116.900 79.569,117.078 79.234,117.388 79.068 C 117.698 78.902,118.520 77.640,119.213 76.263 C 119.906 74.886,120.799 73.223,121.197 72.566 C 121.594 71.910,121.920 71.082,121.920 70.726 C 121.920 70.371,122.064 70.080,122.240 70.080 C 122.416 70.080,122.560 69.882,122.560 69.639 C 122.560 69.397,122.767 69.027,123.019 68.817 C 123.272 68.607,123.572 68.014,123.685 67.498 C 123.798 66.982,123.987 66.559,124.105 66.558 C 124.333 66.555,125.120 65.013,125.120 64.570 C 125.120 64.425,125.511 63.698,125.989 62.954 C 126.467 62.209,126.821 61.477,126.777 61.326 C 126.734 61.176,126.877 60.836,127.096 60.572 C 127.557 60.017,128.206 58.934,128.494 58.240 C 128.808 57.483,129.758 55.631,130.511 54.310 C 130.890 53.645,131.200 52.849,131.200 52.541 C 131.200 52.233,131.488 51.774,131.840 51.520 C 132.192 51.266,132.480 50.873,132.480 50.645 C 132.480 50.417,132.608 49.981,132.764 49.676 C 132.920 49.370,133.433 48.364,133.904 47.440 L 134.760 45.760 133.799 45.760 C 133.270 45.760,132.739 45.920,132.618 46.116 M264.320 46.058 C 264.320 46.453,265.016 46.632,267.520 46.880 C 268.664 46.993,269.816 47.144,270.080 47.216 C 270.801 47.411,271.409 46.900,271.177 46.294 C 270.947 45.696,264.320 45.467,264.320 46.058 M272.960 47.120 C 272.961 47.750,274.329 48.640,275.296 48.640 C 275.877 48.640,276.525 48.813,276.736 49.024 C 277.271 49.559,277.845 48.929,277.707 47.957 C 277.602 47.211,272.958 46.393,272.960 47.120 M279.600 48.549 C 278.196 48.762,278.525 49.479,280.433 50.367 C 281.762 50.986,282.048 50.864,282.356 49.553 C 282.632 48.382,282.066 48.176,279.600 48.549 M282.773 49.813 C 282.281 50.305,283.400 51.840,284.251 51.840 C 284.524 51.840,284.831 52.020,284.933 52.240 C 285.083 52.560,285.157 52.560,285.307 52.240 C 285.573 51.670,286.006 51.746,286.218 52.400 C 286.391 52.936,287.759 53.763,288.464 53.758 C 288.856 53.755,289.608 52.275,289.349 52.016 C 289.252 51.919,288.481 51.840,287.635 51.840 C 286.249 51.840,286.047 51.745,285.600 50.880 C 285.052 49.820,284.909 49.773,283.664 50.246 C 282.948 50.518,282.838 50.492,282.993 50.086 C 283.193 49.565,283.117 49.470,282.773 49.813 M290.640 53.693 C 289.279 53.834,289.278 54.615,290.637 55.187 C 291.866 55.704,292.160 55.583,292.160 54.560 C 292.160 53.647,291.993 53.552,290.640 53.693 M292.800 55.771 C 292.800 56.333,293.117 56.703,293.979 57.150 C 294.628 57.485,295.389 57.981,295.671 58.251 C 295.952 58.522,296.754 59.164,297.451 59.679 C 298.149 60.194,299.398 61.233,300.226 61.988 C 301.055 62.743,301.892 63.360,302.087 63.360 C 302.623 63.360,307.800 68.487,308.037 69.252 C 308.150 69.620,308.782 70.508,309.440 71.228 C 310.098 71.947,310.907 72.954,311.238 73.466 C 311.569 73.978,312.236 74.815,312.720 75.326 C 313.204 75.837,313.600 76.390,313.600 76.555 C 313.600 76.910,315.572 79.792,315.920 79.947 C 316.052 80.005,316.160 80.259,316.160 80.511 C 316.160 80.970,316.788 82.260,317.157 82.560 C 317.265 82.648,317.466 83.080,317.604 83.520 C 317.741 83.960,318.192 84.857,318.607 85.514 C 319.021 86.170,319.360 86.856,319.360 87.038 C 319.360 87.220,319.492 87.619,319.654 87.924 C 320.623 89.753,321.253 91.264,321.724 92.884 C 322.487 95.508,323.520 95.552,323.520 92.960 C 323.520 91.495,323.426 91.200,322.958 91.200 C 322.165 91.200,321.487 89.502,321.741 88.151 C 321.981 86.869,321.498 85.760,320.700 85.760 C 320.251 85.760,320.164 85.528,320.250 84.560 C 320.345 83.504,320.240 83.295,319.383 82.817 C 318.455 82.301,318.418 82.201,318.612 80.780 C 318.803 79.387,318.774 79.300,318.174 79.490 C 317.296 79.769,316.864 79.149,316.742 77.434 C 316.649 76.131,316.558 75.991,315.746 75.897 C 315.051 75.818,314.892 75.667,315.034 75.220 C 315.183 74.748,315.072 74.673,314.408 74.800 C 313.629 74.949,313.600 74.896,313.600 73.310 C 313.600 71.883,313.498 71.620,312.827 71.314 C 312.402 71.120,311.984 70.692,311.897 70.361 C 311.809 70.022,311.457 69.760,311.092 69.760 C 310.724 69.760,310.355 69.483,310.240 69.120 C 310.128 68.768,309.774 68.480,309.453 68.480 C 308.775 68.480,308.410 67.754,308.704 66.989 C 308.859 66.585,308.761 66.491,308.294 66.600 C 307.582 66.766,306.296 65.592,306.505 64.966 C 306.587 64.720,306.495 64.642,306.279 64.776 C 306.079 64.900,305.690 64.776,305.415 64.500 C 305.139 64.225,305.069 64.000,305.257 64.000 C 305.446 64.000,305.600 63.840,305.600 63.645 C 305.600 63.428,305.294 63.367,304.807 63.490 C 303.975 63.698,303.340 62.569,303.837 61.765 C 303.981 61.532,303.803 61.477,303.303 61.603 C 302.683 61.758,302.488 61.622,302.184 60.816 C 301.981 60.279,301.587 59.840,301.308 59.840 C 301.029 59.840,300.800 59.631,300.800 59.375 C 300.800 58.817,298.739 57.772,298.242 58.079 C 297.779 58.365,296.956 57.663,297.153 57.150 C 297.250 56.895,297.044 56.756,296.594 56.773 C 296.086 56.792,295.824 56.569,295.687 56.000 C 295.399 54.804,292.800 54.598,292.800 55.771 M322.998 96.400 C 323.098 97.148,323.274 98.400,323.389 99.182 C 323.695 101.256,324.840 102.208,325.238 100.720 C 325.818 98.557,325.090 95.680,323.963 95.680 C 323.719 95.680,323.520 95.536,323.520 95.360 C 323.520 95.184,323.362 95.040,323.168 95.040 C 322.938 95.040,322.879 95.513,322.998 96.400 M258.211 100.235 C 257.500 100.499,257.485 100.547,258.019 100.848 C 258.338 101.027,258.790 101.100,259.023 101.011 C 259.256 100.921,259.730 101.047,260.076 101.289 C 260.655 101.694,260.694 101.669,260.561 100.976 C 260.397 100.114,259.389 99.797,258.211 100.235 M261.120 101.254 C 261.120 101.503,261.035 101.929,260.931 102.200 C 260.800 102.543,260.995 102.757,261.571 102.901 C 262.102 103.035,262.400 103.330,262.400 103.723 C 262.400 104.080,262.729 104.461,263.190 104.636 C 263.624 104.801,264.163 105.230,264.387 105.588 C 264.611 105.947,264.975 106.240,265.197 106.240 C 265.419 106.240,265.600 106.363,265.600 106.513 C 265.600 106.946,267.485 108.800,267.926 108.800 C 268.554 108.800,269.150 110.010,268.938 110.854 C 268.668 111.930,269.335 113.125,269.931 112.631 C 270.306 112.319,270.391 112.774,270.468 115.510 L 270.560 118.759 271.280 118.087 C 272.161 117.265,272.304 114.590,271.511 113.796 C 271.192 113.478,271.092 113.024,271.224 112.498 C 271.428 111.684,270.475 108.804,270.000 108.801 C 269.868 108.801,269.760 108.562,269.760 108.270 C 269.760 107.979,269.400 107.268,268.960 106.692 C 268.520 106.115,268.160 105.513,268.160 105.354 C 268.160 104.494,262.696 100.800,261.425 100.800 C 261.257 100.800,261.120 101.004,261.120 101.254 M325.196 106.637 C 324.919 107.616,324.896 108.631,325.115 110.240 C 325.498 113.064,325.506 118.203,325.131 121.115 C 324.833 123.431,325.256 125.873,325.918 125.655 C 326.966 125.310,326.959 105.727,325.911 105.382 C 325.730 105.323,325.408 105.887,325.196 106.637 M270.400 119.879 C 270.400 120.277,270.300 120.315,269.971 120.042 C 269.366 119.540,269.120 119.913,269.120 121.333 C 269.120 122.008,268.976 122.560,268.800 122.560 C 268.624 122.560,268.469 122.884,268.455 123.280 C 268.441 123.676,268.357 123.820,268.268 123.600 C 268.041 123.037,267.200 123.100,267.200 123.680 C 267.200 123.944,267.372 124.160,267.581 124.160 C 267.791 124.160,267.689 124.360,267.355 124.604 C 267.020 124.849,266.575 124.983,266.365 124.902 C 266.148 124.819,266.004 125.006,266.032 125.338 C 266.062 125.707,265.702 126.095,265.045 126.400 C 264.475 126.664,264.068 127.042,264.140 127.241 C 264.319 127.738,263.677 128.320,262.949 128.320 C 262.036 128.320,262.482 129.105,263.462 129.221 C 264.412 129.334,269.119 125.107,269.120 124.140 C 269.120 123.866,269.373 123.362,269.682 123.020 C 270.795 121.793,271.485 119.360,270.720 119.360 C 270.544 119.360,270.400 119.594,270.400 119.879 M258.122 129.544 C 258.052 129.663,257.891 130.246,257.764 130.839 L 257.532 131.918 258.606 131.742 C 261.371 131.288,262.862 130.542,262.203 129.940 C 261.836 129.605,258.288 129.260,258.122 129.544 M324.160 129.737 C 324.160 130.013,324.016 130.240,323.840 130.240 C 323.664 130.240,323.520 131.024,323.520 131.981 C 323.520 132.939,323.376 133.811,323.200 133.920 C 323.024 134.029,322.880 134.613,322.880 135.219 C 322.880 135.824,322.760 136.320,322.613 136.320 C 322.285 136.320,321.350 139.571,321.526 140.099 C 321.702 140.626,322.240 140.578,322.240 140.036 C 322.240 139.791,322.492 139.611,322.800 139.636 C 323.266 139.673,323.368 139.384,323.406 137.920 C 323.486 134.850,323.439 134.985,324.399 135.097 L 325.277 135.200 325.279 132.325 C 325.280 129.841,325.204 129.435,324.720 129.341 C 324.378 129.275,324.160 129.429,324.160 129.737 M88.502 131.125 C 88.377 131.250,88.033 131.354,87.737 131.356 C 87.332 131.359,87.175 131.705,87.099 132.763 C 86.994 134.233,86.471 135.040,85.623 135.040 C 85.054 135.040,84.898 136.785,85.437 137.118 C 85.979 137.453,85.052 138.138,84.261 137.987 C 83.385 137.820,82.935 138.655,83.520 139.360 C 84.043 139.990,83.721 140.722,82.718 141.179 C 81.966 141.522,81.915 141.669,82.105 142.936 C 82.288 144.158,82.241 144.320,81.700 144.320 C 81.364 144.320,80.915 144.493,80.704 144.704 C 80.221 145.187,80.185 146.681,80.664 146.385 C 80.871 146.257,80.855 146.416,80.623 146.788 C 80.412 147.126,79.933 147.537,79.560 147.702 C 79.058 147.922,78.907 148.231,78.983 148.880 C 79.039 149.364,78.931 149.760,78.743 149.760 C 78.554 149.760,78.400 150.043,78.400 150.390 C 78.400 150.817,78.246 150.961,77.923 150.837 C 77.281 150.591,76.891 151.650,77.473 152.057 C 77.817 152.297,77.828 152.406,77.520 152.531 C 77.300 152.620,77.120 153.044,77.120 153.473 C 77.120 154.140,77.007 154.224,76.335 154.055 C 75.597 153.870,75.560 153.923,75.721 154.929 C 75.902 156.065,75.117 158.083,74.735 157.464 C 74.234 156.654,73.872 157.171,74.080 158.400 C 74.232 159.300,74.183 159.680,73.914 159.680 C 73.704 159.680,73.611 159.887,73.708 160.140 C 73.823 160.441,73.641 160.635,73.182 160.700 C 72.603 160.783,72.463 161.040,72.381 162.175 C 72.302 163.270,72.130 163.608,71.541 163.832 C 70.961 164.053,70.834 164.293,70.957 164.937 C 71.057 165.458,70.971 165.760,70.723 165.760 C 70.503 165.760,70.414 165.975,70.520 166.250 C 70.645 166.576,70.442 166.842,69.914 167.042 C 69.442 167.222,69.120 167.598,69.120 167.971 C 69.120 168.315,68.845 168.684,68.509 168.791 C 67.521 169.104,67.108 169.789,67.483 170.491 C 67.860 171.196,67.406 171.840,66.531 171.840 C 65.875 171.840,65.429 173.328,65.911 173.909 C 66.164 174.214,65.972 174.529,65.145 175.159 C 64.172 175.902,64.061 176.131,64.217 177.088 C 64.364 177.996,64.282 178.209,63.716 178.388 C 63.136 178.573,63.040 178.852,63.040 180.368 C 63.040 182.658,63.449 182.505,64.924 179.665 C 65.560 178.441,66.188 177.392,66.320 177.333 C 66.452 177.275,66.560 176.887,66.560 176.472 C 66.560 176.057,66.694 175.635,66.858 175.534 C 67.224 175.307,69.760 170.248,69.760 169.744 C 69.760 169.543,70.048 169.119,70.400 168.800 C 70.752 168.481,71.040 167.883,71.040 167.470 C 71.040 167.058,71.181 166.720,71.353 166.720 C 71.727 166.720,72.960 164.396,72.960 163.693 C 72.960 163.422,73.176 163.200,73.440 163.200 C 73.704 163.200,73.920 162.920,73.920 162.579 C 73.920 162.237,74.064 161.869,74.240 161.760 C 74.416 161.651,74.560 161.211,74.560 160.781 C 74.560 160.352,74.681 160.000,74.829 160.000 C 75.174 160.000,75.972 158.363,75.881 157.840 C 75.843 157.620,75.962 157.440,76.146 157.440 C 76.330 157.440,76.480 157.224,76.480 156.960 C 76.480 156.696,76.589 156.480,76.722 156.480 C 76.855 156.480,77.126 156.084,77.325 155.600 C 77.523 155.116,77.776 154.504,77.886 154.240 C 77.997 153.976,78.363 153.328,78.700 152.800 C 79.037 152.272,79.324 151.610,79.337 151.330 C 79.349 151.049,79.648 150.559,80.000 150.240 C 80.352 149.921,80.640 149.395,80.640 149.070 C 80.640 148.746,80.799 148.480,80.994 148.480 C 81.189 148.480,81.268 148.269,81.169 148.012 C 81.065 147.740,81.319 147.284,81.775 146.926 C 82.207 146.586,82.560 146.105,82.560 145.857 C 82.560 145.608,82.992 144.724,83.520 143.892 C 84.048 143.059,84.491 142.203,84.503 141.989 C 84.516 141.775,84.792 141.168,85.116 140.640 C 86.494 138.395,89.280 132.566,89.280 131.930 C 89.280 131.183,88.869 130.758,88.502 131.125 M148.880 131.268 C 148.924 131.481,149.212 131.940,149.520 132.288 C 149.828 132.636,150.080 133.110,150.080 133.342 C 150.080 133.573,150.708 134.662,151.475 135.761 C 152.242 136.861,152.965 138.065,153.083 138.438 C 153.200 138.811,153.581 139.373,153.928 139.687 C 154.276 140.002,154.562 140.417,154.566 140.610 C 154.569 140.802,154.929 141.299,155.366 141.714 C 155.802 142.128,156.160 142.722,156.160 143.034 C 156.160 143.346,156.376 143.781,156.640 144.000 C 156.904 144.219,157.120 144.572,157.120 144.783 C 157.120 144.995,157.480 145.507,157.920 145.920 C 158.360 146.333,158.720 146.900,158.720 147.180 C 158.720 147.459,159.080 147.958,159.520 148.289 C 159.960 148.619,160.320 149.074,160.320 149.300 C 160.320 149.526,160.647 150.118,161.048 150.615 C 161.448 151.113,162.106 152.168,162.509 152.960 C 163.257 154.426,164.285 156.002,165.433 157.440 C 165.784 157.880,166.073 158.363,166.076 158.514 C 166.078 158.664,166.440 159.215,166.880 159.738 C 167.320 160.261,167.680 160.869,167.680 161.089 C 167.680 161.309,168.040 161.827,168.480 162.240 C 168.920 162.653,169.280 163.165,169.280 163.377 C 169.280 163.588,169.496 163.941,169.760 164.160 C 170.024 164.379,170.240 164.835,170.240 165.174 C 170.240 165.524,170.655 166.025,171.200 166.335 C 171.729 166.635,172.095 167.056,172.014 167.271 C 171.933 167.487,172.221 168.083,172.653 168.598 C 173.086 169.112,173.440 169.729,173.440 169.970 C 173.440 170.211,173.800 170.678,174.240 171.009 C 174.680 171.339,175.040 171.794,175.040 172.020 C 175.040 172.246,175.400 172.859,175.840 173.382 C 176.280 173.905,176.640 174.494,176.640 174.693 C 176.640 175.139,178.094 177.472,178.547 177.752 C 178.730 177.865,178.880 178.172,178.880 178.433 C 178.880 178.694,179.247 179.298,179.695 179.774 C 180.143 180.250,180.736 181.108,181.012 181.680 C 181.287 182.252,181.629 182.720,181.771 182.720 C 181.913 182.720,182.121 183.140,182.234 183.653 C 182.430 184.545,183.185 185.183,183.479 184.706 C 184.084 183.723,183.654 181.259,182.926 181.538 C 182.435 181.727,181.660 180.899,182.083 180.638 C 182.924 180.118,181.842 178.096,180.710 178.071 C 180.493 178.067,180.357 177.731,180.402 177.316 C 180.474 176.666,180.381 176.596,179.682 176.771 C 178.914 176.964,178.880 176.911,178.880 175.516 C 178.880 174.423,178.740 174.007,178.320 173.848 C 177.451 173.519,176.895 172.844,177.152 172.428 C 177.306 172.178,177.216 172.116,176.884 172.243 C 176.340 172.452,176.033 171.844,175.709 169.920 C 175.592 169.228,175.337 168.797,175.040 168.792 C 174.125 168.775,173.751 168.308,173.967 167.448 C 174.142 166.750,174.087 166.649,173.624 166.826 C 173.150 167.008,171.830 166.184,172.080 165.863 C 172.418 165.429,172.086 163.840,171.657 163.840 C 171.381 163.840,170.938 163.624,170.674 163.360 C 170.410 163.096,170.349 162.880,170.537 162.880 C 171.397 162.880,170.886 160.907,169.934 160.547 C 169.379 160.338,168.949 159.919,168.894 159.535 C 168.842 159.175,168.580 158.895,168.311 158.913 C 168.043 158.930,167.641 158.750,167.419 158.513 C 167.182 158.259,167.152 158.080,167.347 158.080 C 168.157 158.080,167.675 156.193,166.722 155.630 C 166.194 155.319,165.798 154.843,165.842 154.572 C 165.894 154.241,165.659 154.079,165.120 154.076 C 164.396 154.071,164.305 153.920,164.160 152.476 C 164.052 151.394,163.866 150.908,163.583 150.966 C 163.062 151.073,162.400 150.398,162.400 149.760 C 162.400 149.496,162.076 149.234,161.680 149.178 C 161.070 149.091,160.960 148.880,160.960 147.788 C 160.960 146.769,160.826 146.465,160.320 146.333 C 159.641 146.155,159.576 145.974,159.673 144.529 C 159.733 143.648,158.819 142.400,158.115 142.400 C 157.943 142.400,157.712 142.112,157.600 141.760 C 157.488 141.408,157.180 141.120,156.916 141.120 C 156.651 141.120,156.218 140.904,155.954 140.640 C 155.690 140.376,155.629 140.160,155.817 140.160 C 156.696 140.160,156.162 138.185,155.184 137.816 C 154.415 137.526,154.245 137.304,154.379 136.769 C 154.525 136.189,154.434 136.113,153.755 136.243 C 152.948 136.397,152.816 136.182,152.949 134.925 C 153.090 133.588,152.642 132.725,151.880 132.871 C 151.253 132.991,151.171 132.900,151.299 132.230 C 151.426 131.564,151.352 131.479,150.798 131.655 C 150.401 131.781,149.956 131.670,149.657 131.371 C 149.066 130.780,148.771 130.741,148.880 131.268 M188.480 131.520 C 188.480 131.731,200.053 131.840,222.560 131.840 C 245.067 131.840,256.640 131.731,256.640 131.520 C 256.640 131.309,245.067 131.200,222.560 131.200 C 200.053 131.200,188.480 131.309,188.480 131.520 M186.226 135.417 C 186.218 135.473,186.162 136.197,186.103 137.025 L 185.994 138.529 186.917 138.345 C 187.837 138.161,187.840 138.166,187.840 139.775 C 187.840 141.290,187.896 141.401,188.753 141.590 C 189.515 141.757,189.641 141.920,189.515 142.580 C 189.401 143.176,189.478 143.325,189.831 143.190 C 190.426 142.962,191.170 143.839,190.925 144.479 C 190.641 145.218,191.287 146.601,192.004 146.788 C 192.355 146.880,192.640 147.225,192.640 147.557 C 192.640 148.239,192.979 148.333,193.514 147.798 C 193.783 147.529,193.851 147.591,193.779 148.038 C 193.726 148.369,193.821 148.815,193.991 149.029 C 194.161 149.243,194.234 149.603,194.153 149.829 C 193.919 150.483,194.525 151.360,195.211 151.360 C 195.629 151.360,195.840 151.577,195.840 152.008 C 195.840 152.409,196.153 152.775,196.659 152.967 C 197.110 153.139,197.395 153.413,197.294 153.577 C 197.193 153.741,197.263 153.971,197.450 154.086 C 197.689 154.234,197.682 154.429,197.428 154.734 C 196.977 155.278,197.273 155.792,198.253 156.165 C 198.874 156.401,199.021 156.716,199.102 157.984 C 199.188 159.327,199.299 159.537,200.000 159.678 C 200.440 159.767,200.800 160.056,200.800 160.320 C 200.800 160.584,201.124 160.846,201.520 160.902 C 202.104 160.985,202.240 161.208,202.240 162.081 C 202.240 163.850,202.748 164.800,203.694 164.800 C 204.358 164.800,204.485 164.919,204.334 165.397 C 204.174 165.901,204.277 165.969,204.995 165.832 C 205.840 165.670,205.845 165.680,205.627 167.132 C 205.411 168.575,205.423 168.602,206.566 169.144 C 207.316 169.500,207.590 169.778,207.342 169.931 C 206.836 170.244,207.248 170.880,207.956 170.880 C 208.386 170.880,208.533 171.188,208.594 172.217 C 208.692 173.886,208.813 174.080,209.758 174.080 C 210.349 174.080,210.540 174.275,210.619 174.960 C 210.692 175.592,210.878 175.814,211.280 175.746 C 211.733 175.670,211.840 175.888,211.840 176.882 C 211.840 178.220,212.284 178.880,213.184 178.880 C 213.654 178.880,213.760 179.147,213.760 180.335 C 213.760 181.617,213.865 181.837,214.640 182.175 C 215.294 182.461,215.493 182.748,215.416 183.292 C 215.325 183.934,215.414 183.999,216.137 183.817 C 216.946 183.614,216.961 183.641,216.881 185.152 C 216.807 186.552,216.881 186.733,217.680 187.124 C 218.176 187.367,218.560 187.818,218.560 188.158 C 218.560 188.617,218.770 188.746,219.440 188.700 C 220.278 188.643,220.320 188.708,220.320 190.073 C 220.320 191.393,220.409 191.550,221.440 192.058 C 222.056 192.361,222.380 192.616,222.160 192.625 C 221.522 192.649,221.698 193.324,222.389 193.505 C 223.106 193.692,223.471 194.538,223.171 195.319 C 222.904 196.017,223.582 196.800,224.455 196.800 C 225.064 196.800,225.135 196.942,225.019 197.934 C 224.883 199.101,225.596 200.320,226.414 200.320 C 226.631 200.320,226.789 200.572,226.764 200.880 C 226.734 201.267,226.992 201.471,227.600 201.541 C 228.427 201.636,228.480 201.737,228.480 203.221 C 228.480 204.593,228.565 204.800,229.128 204.800 C 229.584 204.800,229.830 205.069,229.958 205.710 C 230.109 206.466,230.271 206.595,230.910 206.473 C 231.631 206.335,231.680 206.417,231.680 207.766 C 231.680 208.949,231.823 209.300,232.480 209.731 C 232.920 210.019,233.280 210.549,233.280 210.909 C 233.280 211.386,233.431 211.515,233.840 211.386 C 234.311 211.237,234.415 211.447,234.497 212.702 C 234.619 214.585,234.769 214.817,235.715 214.580 C 236.458 214.393,236.629 214.608,236.509 215.576 C 236.484 215.782,236.719 216.034,237.032 216.135 C 237.763 216.372,238.484 217.833,237.963 218.024 C 237.390 218.235,238.183 219.342,238.993 219.462 C 239.556 219.546,239.680 219.782,239.680 220.773 C 239.680 221.967,240.411 223.040,241.225 223.040 C 241.431 223.040,241.564 223.215,241.520 223.428 C 241.476 223.642,241.771 223.966,242.177 224.148 C 242.733 224.399,242.898 224.714,242.852 225.440 C 242.771 226.726,243.146 227.520,243.834 227.520 C 244.201 227.520,244.465 227.843,244.584 228.439 C 244.741 229.227,244.887 229.335,245.604 229.198 C 246.423 229.041,246.439 229.070,246.340 230.588 C 246.255 231.899,246.334 232.157,246.849 232.262 C 247.763 232.448,248.243 233.027,248.060 233.725 C 247.937 234.196,248.022 234.300,248.407 234.152 C 248.884 233.969,249.421 235.156,249.257 236.034 C 249.120 236.774,249.334 237.120,249.930 237.120 C 250.631 237.120,250.726 237.292,251.030 239.120 C 251.149 239.840,251.408 240.320,251.677 240.320 C 251.923 240.320,252.314 240.716,252.546 241.200 C 252.783 241.697,253.278 242.125,253.683 242.182 C 254.287 242.268,254.400 242.483,254.400 243.547 C 254.400 244.628,254.549 244.900,255.440 245.442 C 256.012 245.790,256.408 246.184,256.320 246.317 C 256.232 246.451,256.494 246.704,256.902 246.880 C 257.500 247.138,257.610 247.373,257.467 248.093 C 257.258 249.154,257.849 250.240,258.637 250.240 C 259.028 250.240,259.200 250.491,259.200 251.062 C 259.200 251.698,259.326 251.843,259.760 251.707 C 260.144 251.587,260.436 251.782,260.690 252.326 C 260.893 252.763,260.929 253.120,260.770 253.120 C 260.348 253.120,260.415 254.207,260.864 254.656 C 261.075 254.867,261.490 255.040,261.785 255.040 C 262.080 255.040,262.501 255.256,262.720 255.520 C 262.995 255.852,263.007 256.000,262.759 256.000 C 262.562 256.000,262.400 256.161,262.400 256.357 C 262.400 256.557,262.682 256.641,263.040 256.547 C 263.507 256.425,263.680 256.537,263.680 256.963 C 263.680 257.284,263.860 257.607,264.080 257.681 C 264.387 257.785,264.372 257.946,264.016 258.378 C 263.582 258.903,264.471 260.122,265.311 260.153 C 265.417 260.157,265.515 260.583,265.529 261.100 C 265.566 262.402,266.144 263.360,266.891 263.360 C 267.295 263.360,267.520 263.577,267.520 263.965 C 267.520 264.340,267.818 264.645,268.303 264.767 C 268.975 264.936,269.099 265.176,269.183 266.482 C 269.267 267.793,269.381 268.014,270.024 268.105 C 270.536 268.178,270.711 268.362,270.584 268.693 C 270.457 269.023,270.710 269.293,271.384 269.547 C 272.242 269.871,272.350 270.043,272.223 270.879 C 271.994 272.380,272.470 272.960,273.931 272.960 C 275.543 272.960,275.525 272.753,273.674 269.972 C 272.834 268.712,272.006 267.447,271.834 267.163 C 271.566 266.722,270.463 264.997,268.879 262.541 C 268.659 262.200,268.349 261.632,268.190 261.280 C 268.031 260.928,267.600 260.322,267.231 259.933 C 266.862 259.545,266.560 259.009,266.560 258.743 C 266.560 258.477,266.128 257.940,265.600 257.549 C 265.072 257.159,264.640 256.596,264.640 256.299 C 264.640 256.002,264.416 255.572,264.142 255.345 C 263.867 255.117,263.447 254.463,263.208 253.890 C 262.969 253.318,262.403 252.607,261.949 252.310 C 261.496 252.013,261.193 251.661,261.275 251.529 C 261.478 251.200,260.318 248.849,259.699 248.336 C 259.425 248.108,259.200 247.780,259.200 247.607 C 259.200 247.434,258.876 246.889,258.480 246.395 C 258.084 245.902,257.184 244.539,256.480 243.367 C 254.416 239.930,253.173 237.964,252.630 237.280 C 252.352 236.928,251.902 236.177,251.631 235.612 C 251.360 235.046,250.864 234.497,250.529 234.390 C 250.194 234.284,249.920 233.946,249.920 233.639 C 249.920 233.332,249.632 232.772,249.280 232.394 C 248.928 232.016,248.635 231.521,248.629 231.293 C 248.624 231.066,248.194 230.304,247.675 229.600 C 247.156 228.896,246.554 227.960,246.338 227.520 C 246.122 227.080,245.615 226.313,245.212 225.815 C 244.810 225.318,244.480 224.706,244.480 224.455 C 244.480 224.205,244.360 224.000,244.214 224.000 C 244.068 224.000,243.748 223.604,243.504 223.120 C 243.260 222.636,242.695 221.736,242.250 221.120 C 241.804 220.504,241.167 219.496,240.833 218.880 C 240.025 217.390,239.354 216.640,238.830 216.640 C 238.573 216.640,238.400 216.282,238.400 215.751 C 238.400 215.228,238.136 214.671,237.760 214.400 C 237.408 214.146,237.120 213.700,237.120 213.407 C 237.120 213.115,236.672 212.438,236.125 211.903 C 235.578 211.369,235.221 210.785,235.331 210.608 C 235.440 210.430,235.388 210.196,235.214 210.089 C 235.040 209.981,234.661 209.395,234.372 208.786 C 234.083 208.178,233.719 207.680,233.564 207.680 C 233.408 207.680,233.280 207.499,233.280 207.277 C 233.280 207.055,232.920 206.485,232.480 206.011 C 232.040 205.536,231.680 204.948,231.680 204.704 C 231.680 204.459,231.320 203.841,230.880 203.330 C 230.441 202.818,230.081 202.302,230.080 202.183 C 230.080 202.063,229.872 201.758,229.618 201.504 C 229.365 201.250,228.703 200.196,228.147 199.161 C 227.592 198.127,226.864 196.983,226.529 196.619 C 226.194 196.256,225.920 195.769,225.920 195.537 C 225.920 195.089,224.728 193.920,224.271 193.920 C 224.122 193.920,224.000 193.582,224.000 193.170 C 224.000 192.757,223.712 192.159,223.360 191.840 C 223.008 191.521,222.720 191.091,222.720 190.883 C 222.720 190.676,222.144 189.684,221.440 188.679 C 220.736 187.674,220.160 186.736,220.160 186.596 C 220.160 186.455,219.800 185.921,219.360 185.410 C 218.921 184.898,218.561 184.357,218.560 184.206 C 218.560 184.056,218.236 183.534,217.840 183.047 C 217.444 182.559,216.832 181.680,216.480 181.092 C 216.128 180.504,215.593 179.657,215.290 179.211 C 214.988 178.765,214.533 177.946,214.279 177.391 C 214.026 176.836,213.517 176.286,213.149 176.169 C 212.728 176.036,212.480 175.686,212.480 175.228 C 212.480 174.827,212.192 174.239,211.840 173.920 C 211.488 173.601,211.200 173.128,211.200 172.868 C 211.200 172.381,210.033 171.200,209.551 171.200 C 209.402 171.200,209.280 170.862,209.280 170.450 C 209.280 170.037,208.992 169.439,208.640 169.120 C 208.288 168.801,208.000 168.346,208.000 168.107 C 208.000 167.869,207.497 166.958,206.882 166.083 C 206.267 165.208,205.727 164.315,205.682 164.098 C 205.637 163.881,205.269 163.338,204.865 162.892 C 204.461 162.445,203.904 161.612,203.628 161.040 C 203.353 160.468,202.999 160.000,202.844 160.000 C 202.688 160.000,202.550 159.748,202.539 159.440 C 202.527 159.132,202.026 158.232,201.426 157.440 C 200.825 156.648,200.122 155.532,199.864 154.961 C 199.605 154.389,199.020 153.751,198.564 153.544 C 198.100 153.332,197.805 152.984,197.894 152.752 C 197.982 152.524,197.699 151.917,197.267 151.402 C 196.834 150.888,196.480 150.240,196.480 149.961 C 196.480 149.683,196.126 149.223,195.692 148.939 C 195.259 148.655,194.816 148.112,194.707 147.731 C 194.348 146.476,193.619 145.054,193.126 144.645 C 192.859 144.423,192.640 144.061,192.640 143.840 C 192.640 143.619,192.412 143.249,192.134 143.018 C 191.855 142.787,191.387 142.136,191.094 141.571 C 190.800 141.006,189.984 139.707,189.280 138.684 C 188.576 137.661,187.852 136.532,187.672 136.175 C 187.402 135.641,186.276 135.051,186.226 135.417 M320.728 141.343 C 320.512 141.423,320.159 142.341,319.944 143.384 C 319.728 144.427,319.447 145.280,319.319 145.280 C 318.992 145.280,318.080 147.183,318.080 147.868 C 318.080 148.181,317.792 148.528,317.440 148.640 C 317.088 148.752,316.800 149.094,316.800 149.401 C 316.800 149.708,316.512 150.268,316.160 150.646 C 315.808 151.024,315.520 151.538,315.520 151.787 C 315.520 152.037,315.304 152.421,315.040 152.640 C 314.776 152.859,314.560 153.180,314.560 153.353 C 314.560 153.526,314.200 154.095,313.760 154.618 C 313.320 155.141,312.960 155.744,312.960 155.958 C 312.960 156.171,312.384 156.876,311.680 157.523 C 310.976 158.171,310.400 158.940,310.400 159.233 C 310.400 159.861,299.429 170.880,298.804 170.880 C 298.568 170.880,297.877 171.306,297.268 171.827 C 296.659 172.348,295.992 172.780,295.787 172.787 C 295.581 172.794,295.365 172.919,295.307 173.065 C 295.145 173.466,290.268 176.504,288.720 177.168 C 287.972 177.489,287.360 177.861,287.360 177.995 C 287.360 178.130,287.196 178.240,286.995 178.240 C 286.516 178.240,283.839 179.580,283.845 179.817 C 283.848 179.918,283.970 180.189,284.117 180.421 C 284.478 180.991,287.235 180.809,287.114 180.223 C 286.979 179.566,287.926 178.813,288.612 179.031 C 289.609 179.347,290.880 178.885,290.880 178.205 C 290.880 177.730,291.114 177.600,291.974 177.600 C 293.552 177.600,294.080 177.313,294.080 176.454 C 294.080 175.778,294.186 175.717,295.069 175.894 C 296.008 176.082,296.052 176.045,295.949 175.166 C 295.851 174.330,295.933 174.238,296.800 174.220 C 299.142 174.171,299.226 174.135,299.006 173.260 C 298.841 172.601,298.934 172.406,299.480 172.263 C 299.854 172.165,300.160 171.891,300.160 171.654 C 300.160 171.116,301.128 170.593,301.729 170.806 C 302.042 170.918,302.129 170.781,302.017 170.353 C 301.804 169.538,302.563 168.867,303.399 169.132 C 303.963 169.311,304.031 169.242,303.850 168.671 C 303.715 168.246,303.821 167.813,304.138 167.496 C 304.594 167.040,304.640 167.040,304.640 167.497 C 304.640 167.774,304.784 168.000,304.960 168.000 C 305.298 168.000,305.317 167.951,305.438 166.779 C 305.521 165.975,306.240 165.004,306.240 165.696 C 306.240 165.907,306.471 166.080,306.754 166.080 C 307.068 166.080,307.200 165.902,307.093 165.623 C 306.799 164.857,307.604 163.508,308.238 163.707 C 308.647 163.835,308.745 163.748,308.604 163.381 C 308.416 162.892,308.764 162.732,309.724 162.866 C 310.009 162.906,310.112 162.717,310.012 162.335 C 309.801 161.529,310.571 160.870,311.411 161.136 C 312.005 161.325,312.068 161.248,311.928 160.516 C 311.808 159.886,311.900 159.680,312.300 159.680 C 313.125 159.680,313.600 159.013,313.600 157.856 C 313.600 157.275,313.744 156.800,313.920 156.800 C 314.096 156.800,314.240 156.517,314.240 156.170 C 314.240 155.718,314.388 155.597,314.764 155.741 C 315.123 155.879,315.240 155.801,315.138 155.494 C 314.956 154.949,315.648 154.196,316.223 154.314 C 316.498 154.371,316.675 153.965,316.744 153.124 C 316.862 151.666,317.296 150.994,318.040 151.116 C 318.431 151.180,318.536 150.968,318.478 150.240 C 318.395 149.204,318.868 148.405,319.760 148.070 C 320.180 147.913,320.320 147.498,320.320 146.410 C 320.320 145.173,320.414 144.960,320.960 144.960 C 321.495 144.960,321.600 144.747,321.600 143.659 C 321.600 142.943,321.733 142.109,321.896 141.805 C 322.200 141.238,321.626 141.011,320.728 141.343 M281.656 181.162 C 280.723 181.507,280.779 181.949,281.920 183.249 C 282.448 183.850,282.880 184.553,282.880 184.811 C 282.880 185.069,283.024 185.280,283.200 185.280 C 283.376 185.280,283.520 185.564,283.520 185.910 C 283.520 186.257,283.952 186.860,284.480 187.251 C 285.008 187.641,285.440 188.199,285.440 188.491 C 285.440 188.782,285.728 189.281,286.080 189.600 C 286.432 189.919,286.720 190.358,286.720 190.576 C 286.720 190.794,287.180 191.456,287.743 192.046 C 288.306 192.637,288.782 193.264,288.801 193.440 C 288.873 194.118,289.619 195.567,290.235 196.229 C 290.590 196.609,290.880 197.110,290.880 197.340 C 290.880 197.571,291.001 197.760,291.149 197.760 C 291.297 197.760,291.800 198.461,292.267 199.319 C 292.733 200.176,293.332 201.058,293.598 201.278 C 293.863 201.498,294.080 201.814,294.080 201.981 C 294.080 202.147,294.440 202.755,294.880 203.332 C 295.320 203.908,295.680 204.536,295.680 204.727 C 295.680 204.918,296.086 205.408,296.582 205.817 C 297.079 206.226,297.686 207.197,297.932 207.975 C 298.226 208.908,298.681 209.561,299.267 209.895 C 299.779 210.186,300.157 210.675,300.158 211.049 C 300.159 211.407,300.448 211.906,300.800 212.160 C 301.152 212.414,301.440 212.841,301.441 213.111 C 301.442 213.682,304.317 218.214,305.080 218.847 C 305.366 219.084,305.600 219.499,305.600 219.769 C 305.600 220.039,305.960 220.732,306.400 221.308 C 306.840 221.885,307.200 222.453,307.200 222.569 C 307.200 222.686,307.524 223.235,307.920 223.789 C 308.316 224.344,308.907 225.302,309.233 225.919 C 309.560 226.535,310.244 227.428,310.753 227.902 C 311.263 228.376,311.680 228.966,311.680 229.212 C 311.680 229.459,311.968 229.921,312.320 230.240 C 312.672 230.559,312.960 231.072,312.960 231.381 C 312.960 231.690,313.392 232.307,313.920 232.751 C 314.448 233.195,314.880 233.765,314.880 234.016 C 314.880 234.268,315.168 234.840,315.520 235.287 C 315.872 235.735,316.160 236.330,316.160 236.610 C 316.160 236.891,316.304 237.120,316.480 237.120 C 316.656 237.120,316.800 237.318,316.800 237.561 C 316.800 237.803,316.996 238.164,317.236 238.363 C 317.476 238.562,318.342 239.860,319.162 241.248 C 319.981 242.636,320.865 243.948,321.126 244.165 C 321.387 244.381,321.600 244.763,321.600 245.013 C 321.600 245.263,321.746 245.641,321.926 245.854 C 322.585 246.637,323.818 248.509,324.333 249.508 C 324.624 250.074,325.136 250.623,325.471 250.730 C 325.850 250.850,326.080 251.217,326.080 251.702 C 326.080 252.130,326.201 252.480,326.350 252.480 C 326.498 252.480,326.962 253.146,327.380 253.959 C 327.798 254.772,328.475 255.590,328.883 255.776 C 329.291 255.962,329.553 256.302,329.464 256.532 C 329.288 256.991,330.080 258.637,330.960 259.642 C 331.268 259.993,331.520 260.470,331.520 260.700 C 331.520 260.931,331.641 261.120,331.789 261.120 C 331.937 261.120,332.448 261.836,332.924 262.710 C 333.400 263.585,333.936 264.391,334.114 264.501 C 334.293 264.612,334.576 265.012,334.744 265.391 C 335.601 267.333,336.715 268.782,337.360 268.795 C 337.971 268.808,337.596 265.962,336.960 265.760 C 336.471 265.605,336.320 265.276,336.320 264.362 C 336.320 263.042,335.869 262.400,334.942 262.400 C 334.524 262.400,334.391 262.245,334.520 261.908 C 334.635 261.610,334.491 261.335,334.155 261.211 C 333.366 260.920,333.119 260.436,333.331 259.592 C 333.504 258.901,332.513 257.600,331.813 257.600 C 331.676 257.600,331.518 257.276,331.462 256.880 C 331.394 256.399,331.174 256.191,330.800 256.254 C 330.479 256.308,330.240 256.148,330.240 255.881 C 330.240 255.624,330.076 255.359,329.876 255.292 C 329.618 255.206,329.641 254.961,329.956 254.446 C 330.445 253.648,329.599 252.609,328.732 252.942 C 328.496 253.032,328.244 252.767,328.129 252.309 C 328.020 251.875,327.747 251.520,327.523 251.520 C 327.095 251.520,326.732 250.555,326.724 249.397 C 326.722 249.021,326.378 248.489,325.959 248.215 C 325.426 247.866,325.134 247.290,324.985 246.295 C 324.795 245.029,324.664 244.853,323.787 244.677 C 322.958 244.512,322.864 244.404,323.197 244.004 C 323.517 243.618,323.494 243.497,323.076 243.364 C 322.792 243.274,322.326 243.125,322.039 243.034 C 321.640 242.907,321.560 242.609,321.699 241.757 C 321.905 240.486,321.333 239.683,320.217 239.675 C 319.734 239.672,319.646 239.590,319.931 239.410 C 320.658 238.948,320.031 238.060,319.136 238.285 C 318.359 238.480,318.342 238.446,318.449 236.941 C 318.551 235.521,318.496 235.382,317.760 235.196 C 317.123 235.036,316.973 234.813,317.025 234.103 C 317.082 233.321,316.995 233.229,316.321 233.358 C 315.609 233.494,315.544 233.396,315.456 232.046 C 315.373 230.787,315.250 230.560,314.560 230.400 C 313.979 230.265,313.732 229.969,313.656 229.316 C 313.574 228.609,313.421 228.452,312.936 228.579 C 312.396 228.720,312.320 228.564,312.320 227.315 C 312.320 226.067,312.201 225.822,311.362 225.345 C 310.614 224.920,310.404 224.577,310.402 223.783 C 310.400 222.738,309.713 221.760,308.982 221.760 C 308.714 221.760,308.622 221.479,308.722 220.960 C 308.875 220.160,308.387 219.854,307.988 220.499 C 307.856 220.713,307.621 220.625,307.351 220.259 C 307.086 219.900,307.036 219.565,307.222 219.376 C 307.875 218.710,307.369 217.650,306.185 217.202 C 305.890 217.090,305.602 216.666,305.545 216.260 C 305.460 215.662,305.270 215.538,304.553 215.613 C 303.699 215.703,303.669 215.657,303.753 214.378 C 303.821 213.342,303.703 212.969,303.217 212.685 C 302.172 212.072,301.291 211.200,301.719 211.200 C 301.938 211.200,302.024 211.049,301.910 210.864 C 301.769 210.635,301.559 210.649,301.248 210.907 C 300.880 211.212,300.803 211.169,300.847 210.682 C 300.994 209.050,300.769 207.968,300.240 207.768 C 299.383 207.443,298.874 206.827,298.930 206.183 C 299.032 205.024,298.867 204.626,298.160 204.316 C 297.760 204.140,297.439 203.716,297.439 203.360 C 297.438 203.008,297.222 202.701,296.959 202.677 C 296.695 202.653,296.297 202.617,296.074 202.597 C 295.801 202.572,295.696 202.116,295.754 201.201 C 295.832 199.974,295.747 199.796,294.880 199.361 C 294.163 199.002,293.946 198.695,294.024 198.148 C 294.116 197.498,294.031 197.440,293.260 197.634 C 292.419 197.845,292.398 197.817,292.585 196.766 C 292.789 195.621,292.402 194.831,291.465 194.480 C 291.170 194.369,290.882 193.946,290.825 193.540 C 290.754 193.041,290.537 192.831,290.160 192.894 C 289.774 192.959,289.600 192.778,289.600 192.315 C 289.600 191.917,289.460 191.729,289.256 191.855 C 289.064 191.973,289.091 191.781,289.317 191.419 C 289.803 190.641,289.256 189.760,288.287 189.760 C 287.916 189.760,287.615 189.452,287.487 188.941 C 287.364 188.454,287.114 188.186,286.870 188.280 C 286.438 188.445,285.925 187.070,286.232 186.572 C 286.501 186.138,285.800 184.577,285.438 184.801 C 285.026 185.056,284.056 184.107,284.309 183.697 C 285.025 182.539,283.045 180.648,281.656 181.162 M63.600 185.821 C 63.292 185.901,63.040 186.120,63.040 186.308 C 63.040 187.519,62.053 187.499,122.480 187.510 C 161.153 187.517,180.800 187.412,180.800 187.200 C 180.800 187.024,181.088 186.880,181.440 186.880 C 182.329 186.880,182.240 186.415,181.265 185.971 C 180.465 185.607,64.983 185.459,63.600 185.821 M205.515 220.624 C 205.479 221.055,205.592 221.496,205.765 221.603 C 205.938 221.710,206.080 222.004,206.080 222.256 C 206.080 222.507,206.656 223.543,207.360 224.557 C 208.063 225.570,208.639 226.527,208.640 226.683 C 208.640 226.839,209.000 227.300,209.440 227.708 C 209.880 228.116,210.240 228.578,210.240 228.735 C 210.240 229.026,212.716 232.987,213.081 233.280 C 213.190 233.368,213.625 234.088,214.046 234.880 C 214.468 235.672,215.061 236.608,215.363 236.960 C 215.666 237.312,216.321 238.320,216.819 239.200 C 217.317 240.080,218.524 242.029,219.502 243.530 C 220.480 245.032,221.464 246.544,221.689 246.890 C 221.914 247.237,222.346 247.937,222.649 248.447 C 222.952 248.957,223.596 249.840,224.080 250.410 C 224.564 250.979,224.960 251.524,224.960 251.621 C 224.960 251.915,227.023 255.192,227.280 255.307 C 227.412 255.365,227.520 255.617,227.520 255.867 C 227.520 256.116,227.629 256.320,227.762 256.320 C 227.895 256.320,228.207 256.788,228.456 257.360 C 228.705 257.932,229.014 258.472,229.142 258.560 C 229.389 258.729,233.313 264.787,234.200 266.367 C 234.486 266.877,235.094 267.741,235.552 268.287 C 236.009 268.833,236.586 269.712,236.834 270.240 C 237.391 271.427,239.040 271.822,239.040 270.767 C 239.040 269.794,238.699 269.120,238.206 269.120 C 237.961 269.120,237.738 268.940,237.711 268.720 C 237.684 268.500,237.629 268.176,237.588 268.000 C 237.547 267.824,237.497 267.343,237.477 266.932 C 237.451 266.412,237.147 266.074,236.480 265.822 C 235.656 265.511,235.520 265.295,235.520 264.298 C 235.520 263.306,235.288 262.932,233.936 261.742 C 232.708 260.662,232.431 260.252,232.704 259.923 C 233.134 259.405,232.492 258.018,231.706 257.768 C 231.425 257.679,231.052 257.281,230.877 256.883 C 230.703 256.485,230.236 256.114,229.840 256.058 C 229.299 255.981,229.119 255.742,229.116 255.098 C 229.108 253.685,228.767 252.833,228.125 252.629 C 227.792 252.523,227.520 252.217,227.520 251.948 C 227.520 251.680,227.232 251.385,226.880 251.293 C 226.388 251.164,226.240 250.856,226.239 249.963 C 226.238 249.032,226.050 248.674,225.294 248.167 C 224.551 247.669,224.330 247.261,224.255 246.247 C 224.184 245.283,223.984 244.883,223.460 244.653 C 223.075 244.484,222.692 244.088,222.610 243.773 C 222.526 243.452,222.165 243.200,221.790 243.200 C 221.262 243.200,221.120 243.001,221.120 242.261 C 221.120 240.930,220.581 239.680,220.008 239.680 C 219.729 239.680,219.520 239.398,219.520 239.023 C 219.520 238.580,219.205 238.257,218.550 238.028 C 217.804 237.768,217.659 237.594,217.925 237.274 C 218.165 236.985,218.168 236.793,217.936 236.650 C 217.751 236.536,217.600 236.163,217.600 235.821 C 217.600 235.413,217.380 235.200,216.960 235.200 C 216.534 235.200,216.320 234.987,216.320 234.563 C 216.320 234.212,216.028 233.744,215.672 233.523 C 215.283 233.281,214.944 232.623,214.824 231.878 C 214.678 230.970,214.384 230.497,213.730 230.122 C 213.238 229.839,212.769 229.355,212.687 229.044 C 212.606 228.734,212.310 228.480,212.030 228.480 C 211.638 228.480,211.520 228.143,211.520 227.023 C 211.520 225.705,211.432 225.536,210.595 225.244 C 209.949 225.019,209.713 224.756,209.814 224.371 C 210.037 223.520,209.343 222.037,208.636 221.852 C 208.285 221.760,208.000 221.415,208.000 221.083 C 208.000 220.626,207.767 220.480,207.040 220.480 C 206.512 220.480,206.080 220.336,206.080 220.160 C 206.080 219.472,205.576 219.886,205.515 220.624 M63.040 223.710 C 63.040 225.391,63.128 225.683,63.680 225.827 C 64.200 225.963,64.320 226.264,64.320 227.427 C 64.320 228.591,64.440 228.891,64.960 229.027 C 65.368 229.134,65.600 229.464,65.600 229.936 C 65.600 231.195,66.182 232.320,66.833 232.320 C 67.363 232.320,67.421 232.502,67.283 233.728 C 67.122 235.157,67.945 236.209,68.807 235.676 C 68.995 235.559,69.120 236.119,69.120 237.080 C 69.120 238.396,69.233 238.713,69.760 238.880 C 70.213 239.024,70.400 239.364,70.400 240.043 C 70.400 241.339,70.929 242.240,71.691 242.240 C 72.211 242.240,72.320 242.461,72.320 243.513 C 72.320 244.517,72.489 244.896,73.120 245.309 C 73.705 245.693,73.920 246.117,73.920 246.885 C 73.920 247.714,74.131 248.071,74.916 248.568 C 75.529 248.956,75.775 249.282,75.556 249.418 C 74.837 249.862,75.173 251.148,76.160 251.731 C 76.951 252.198,77.120 252.506,77.120 253.478 C 77.120 254.500,77.248 254.702,78.076 254.991 C 78.926 255.287,79.010 255.431,78.837 256.297 C 78.674 257.112,78.804 257.412,79.641 258.146 C 80.190 258.628,80.640 259.278,80.640 259.591 C 80.640 259.989,80.888 260.160,81.466 260.160 C 82.254 260.160,82.288 260.232,82.186 261.680 C 82.083 263.164,82.100 263.198,82.943 263.099 C 83.774 263.002,83.809 263.061,83.903 264.699 C 83.984 266.113,84.095 266.384,84.560 266.306 C 85.100 266.215,85.264 266.551,85.134 267.483 C 84.996 268.471,85.469 269.378,86.220 269.566 C 86.896 269.736,87.019 269.975,87.103 271.282 C 87.200 272.795,87.204 272.800,88.440 272.902 C 89.833 273.016,89.919 272.164,88.694 270.400 C 88.389 269.960,87.870 268.988,87.541 268.240 C 87.212 267.492,86.821 266.880,86.671 266.880 C 86.522 266.880,86.400 266.678,86.400 266.430 C 86.400 265.824,85.068 263.360,84.741 263.360 C 84.597 263.360,84.480 263.153,84.480 262.901 C 84.480 262.540,79.995 253.417,78.728 251.200 C 78.577 250.936,78.221 250.216,77.938 249.600 C 77.654 248.984,77.293 248.264,77.134 248.000 C 76.976 247.736,76.762 247.304,76.660 247.040 C 76.557 246.776,76.197 246.128,75.860 245.600 C 75.523 245.072,75.236 244.400,75.223 244.107 C 75.211 243.813,75.087 243.525,74.949 243.467 C 74.811 243.408,74.257 242.496,73.718 241.440 C 72.769 239.582,70.246 234.777,68.197 230.928 C 67.649 229.898,67.200 228.854,67.200 228.608 C 67.200 228.361,67.056 228.160,66.880 228.160 C 66.704 228.160,66.560 227.971,66.560 227.740 C 66.560 227.510,66.272 227.012,65.920 226.634 C 65.568 226.256,65.280 225.835,65.280 225.698 C 65.280 225.236,63.522 221.785,63.280 221.772 C 63.148 221.766,63.040 222.637,63.040 223.710 M277.769 272.628 C 277.510 272.791,277.379 273.006,277.478 273.104 C 277.959 273.586,335.979 273.123,335.668 272.640 C 335.394 272.213,335.325 272.213,335.045 272.640 C 334.834 272.961,334.728 272.987,334.725 272.720 C 334.719 272.226,278.548 272.135,277.769 272.628 M88.960 273.733 C 88.960 274.012,89.188 274.240,89.467 274.240 C 90.032 274.240,89.933 273.551,89.340 273.353 C 89.131 273.284,88.960 273.455,88.960 273.733 " stroke="none" fill="#c0c0c0" fill-rule="evenodd"></path><path id="path2" d="M260.960 46.080 C 260.840 46.274,261.304 46.402,262.141 46.404 C 262.900 46.407,263.880 46.505,264.320 46.622 C 265.069 46.822,265.086 46.802,264.583 46.298 C 263.987 45.701,261.294 45.539,260.960 46.080 M133.798 47.617 C 133.390 48.444,132.926 49.370,132.768 49.676 C 132.609 49.981,132.480 50.437,132.480 50.689 C 132.480 50.941,132.300 51.219,132.080 51.308 C 131.785 51.427,131.781 51.476,132.065 51.495 C 132.277 51.509,132.692 50.980,132.987 50.320 C 133.283 49.660,133.810 48.500,134.159 47.743 C 135.027 45.859,134.720 45.751,133.798 47.617 M271.078 46.950 C 270.853 47.190,270.429 47.319,270.135 47.237 C 269.073 46.938,265.414 46.734,266.240 47.019 C 266.680 47.172,267.588 47.311,268.258 47.328 C 269.630 47.364,272.217 47.903,272.993 48.314 C 273.275 48.464,274.499 48.829,275.713 49.125 C 276.927 49.421,278.667 50.009,279.580 50.432 C 280.493 50.854,281.529 51.200,281.881 51.200 C 282.234 51.200,282.602 51.330,282.701 51.488 C 282.973 51.929,284.800 52.499,284.800 52.143 C 284.800 51.977,284.574 51.840,284.297 51.840 C 283.541 51.840,282.857 51.005,283.071 50.344 C 283.229 49.858,283.203 49.840,282.915 50.240 C 282.622 50.647,282.566 50.623,282.545 50.080 C 282.521 49.492,282.496 49.498,282.230 50.160 C 281.883 51.023,281.926 51.019,280.329 50.327 C 278.955 49.732,278.448 49.010,279.109 48.590 C 279.387 48.414,279.273 48.328,278.755 48.325 C 278.335 48.322,277.804 48.572,277.577 48.880 C 277.245 49.329,277.082 49.360,276.758 49.040 C 276.534 48.820,275.877 48.640,275.296 48.640 C 274.299 48.640,272.960 47.744,272.960 47.077 C 272.960 46.590,271.506 46.492,271.078 46.950 M131.200 52.470 C 131.200 52.817,130.890 53.645,130.511 54.310 C 129.758 55.631,128.808 57.483,128.494 58.240 C 128.206 58.934,127.557 60.017,127.096 60.572 C 126.877 60.836,126.734 61.176,126.777 61.326 C 126.821 61.477,126.467 62.209,125.989 62.954 C 125.511 63.698,125.120 64.425,125.120 64.570 C 125.120 65.013,124.333 66.555,124.105 66.558 C 123.987 66.559,123.798 66.982,123.685 67.498 C 123.572 68.014,123.272 68.607,123.019 68.817 C 122.767 69.027,122.560 69.397,122.560 69.639 C 122.560 69.882,122.416 70.080,122.240 70.080 C 122.064 70.080,121.920 70.371,121.920 70.726 C 121.920 71.082,121.594 71.910,121.197 72.566 C 120.799 73.223,119.906 74.886,119.213 76.263 C 118.520 77.640,117.698 78.902,117.388 79.068 C 117.078 79.234,116.900 79.569,116.994 79.813 C 117.087 80.056,117.010 80.350,116.822 80.467 C 116.634 80.583,116.480 80.923,116.480 81.222 C 116.480 81.521,116.192 81.946,115.840 82.166 C 115.488 82.386,115.200 82.844,115.200 83.184 C 115.200 83.524,115.056 83.891,114.880 84.000 C 114.704 84.109,114.560 84.465,114.560 84.792 C 114.560 85.119,114.436 85.435,114.285 85.493 C 114.134 85.552,113.705 86.248,113.333 87.040 C 112.961 87.832,112.531 88.696,112.378 88.960 C 111.668 90.184,111.360 90.910,111.360 91.356 C 111.360 91.622,111.179 91.840,110.958 91.840 C 110.737 91.840,110.365 92.451,110.132 93.199 C 109.605 94.887,109.223 95.360,108.387 95.360 C 108.028 95.360,107.823 95.449,107.932 95.558 C 108.722 96.349,110.720 94.338,110.720 92.751 C 110.720 92.426,110.857 92.160,111.025 92.160 C 111.290 92.160,111.692 91.437,112.449 89.600 C 112.558 89.336,112.923 88.688,113.260 88.160 C 113.597 87.632,113.884 86.966,113.897 86.679 C 113.909 86.393,114.151 85.967,114.433 85.732 C 114.958 85.297,115.596 84.006,115.650 83.269 C 115.666 83.043,115.840 82.755,116.035 82.629 C 116.506 82.325,117.440 80.482,117.440 79.856 C 117.440 79.583,117.568 79.360,117.724 79.360 C 117.880 79.360,118.800 77.812,119.768 75.920 C 120.736 74.028,122.300 70.968,123.244 69.120 C 124.188 67.272,125.068 65.712,125.200 65.653 C 125.332 65.595,125.440 65.340,125.440 65.087 C 125.440 64.834,125.776 64.090,126.187 63.434 C 126.597 62.777,127.641 60.826,128.507 59.098 C 129.372 57.371,130.467 55.211,130.940 54.298 C 131.866 52.511,132.025 51.840,131.520 51.840 C 131.344 51.840,131.200 52.124,131.200 52.470 M285.440 52.110 C 285.440 52.702,288.626 54.744,288.651 54.168 C 288.657 54.032,288.909 54.212,289.211 54.569 C 289.513 54.926,290.336 55.488,291.040 55.817 C 291.744 56.145,292.392 56.514,292.480 56.635 C 292.568 56.756,293.492 57.396,294.532 58.057 C 295.573 58.718,296.640 59.474,296.903 59.738 C 297.167 60.001,298.151 60.797,299.091 61.507 C 300.031 62.216,300.800 62.914,300.800 63.057 C 300.800 63.200,301.059 63.399,301.376 63.500 C 302.322 63.800,308.107 69.831,309.836 72.320 C 310.386 73.112,311.386 74.392,312.058 75.165 C 312.730 75.938,313.280 76.687,313.280 76.831 C 313.280 76.974,313.856 77.914,314.560 78.919 C 315.264 79.924,315.840 80.921,315.840 81.134 C 315.840 81.347,316.056 81.701,316.320 81.920 C 316.623 82.171,316.800 82.193,316.800 81.978 C 316.800 81.791,316.656 81.549,316.480 81.440 C 316.304 81.331,316.160 80.975,316.160 80.648 C 316.160 80.321,316.052 80.005,315.920 79.947 C 315.572 79.792,313.600 76.910,313.600 76.555 C 313.600 76.390,313.204 75.837,312.720 75.326 C 312.236 74.815,311.569 73.978,311.238 73.466 C 310.907 72.954,310.098 71.947,309.440 71.228 C 308.782 70.508,308.150 69.620,308.037 69.252 C 307.800 68.487,302.623 63.360,302.087 63.360 C 301.892 63.360,301.055 62.743,300.226 61.988 C 299.398 61.233,298.149 60.194,297.451 59.679 C 296.754 59.164,295.952 58.522,295.671 58.251 C 295.389 57.981,294.628 57.485,293.979 57.150 C 293.130 56.710,292.800 56.330,292.800 55.790 C 292.800 55.004,292.497 54.836,291.984 55.337 C 291.554 55.757,289.600 54.870,289.600 54.255 C 289.600 53.983,289.780 53.758,290.000 53.755 C 290.283 53.752,290.268 53.667,289.949 53.464 C 289.674 53.291,289.285 53.311,288.956 53.517 C 288.269 53.946,286.473 53.213,286.215 52.400 C 286.035 51.834,285.440 51.611,285.440 52.110 M316.853 82.814 C 316.912 82.954,317.414 83.998,317.970 85.134 C 318.525 86.270,319.218 87.776,319.511 88.480 C 320.545 90.966,320.717 91.366,320.997 91.916 C 321.153 92.221,321.280 92.632,321.280 92.827 C 321.280 93.023,321.479 93.637,321.723 94.192 C 321.966 94.746,322.466 96.424,322.833 97.920 C 323.453 100.452,323.515 99.919,322.995 96.522 C 322.862 95.655,322.937 95.201,323.243 95.007 C 323.565 94.802,323.494 94.729,322.969 94.725 C 322.380 94.721,322.166 94.404,321.724 92.884 C 321.253 91.264,320.623 89.753,319.654 87.924 C 319.492 87.619,319.360 87.220,319.360 87.038 C 319.360 86.856,319.006 86.146,318.573 85.460 C 318.140 84.774,317.692 83.841,317.578 83.387 C 317.464 82.932,317.230 82.560,317.059 82.560 C 316.887 82.560,316.795 82.674,316.853 82.814 M257.920 99.860 C 257.920 100.047,258.172 100.175,258.480 100.143 C 259.938 99.995,260.480 100.173,260.480 100.800 C 260.480 101.495,260.987 101.678,261.194 101.057 C 261.508 100.117,268.160 104.221,268.160 105.354 C 268.160 105.513,268.520 106.115,268.960 106.692 C 269.400 107.268,269.760 107.979,269.760 108.270 C 269.760 108.562,269.875 108.800,270.016 108.800 C 270.156 108.800,270.458 109.315,270.685 109.944 C 270.913 110.573,271.166 111.021,271.248 110.939 C 271.378 110.808,270.865 109.508,269.648 106.887 C 268.570 104.567,263.101 100.267,261.391 100.396 C 261.089 100.418,260.671 100.231,260.462 99.979 C 260.023 99.450,257.920 99.352,257.920 99.860 M323.629 101.360 C 323.712 101.668,323.869 102.316,323.976 102.800 C 324.189 103.757,324.387 103.849,325.120 103.331 C 325.481 103.075,325.501 102.951,325.200 102.829 C 324.725 102.636,324.659 101.760,325.120 101.760 C 325.296 101.760,325.429 101.508,325.415 101.200 C 325.400 100.865,325.324 100.801,325.228 101.040 C 325.036 101.515,324.160 101.581,324.160 101.120 C 324.160 100.944,324.006 100.800,323.818 100.800 C 323.631 100.800,323.545 101.052,323.629 101.360 M324.960 105.600 C 324.790 105.868,324.715 107.777,324.790 109.920 C 324.962 114.803,324.963 116.098,324.800 120.800 C 324.705 123.550,324.783 124.822,325.073 125.280 C 325.439 125.857,325.458 125.826,325.269 124.960 C 324.998 123.724,324.999 123.282,325.282 117.920 C 325.435 115.032,325.389 112.386,325.152 110.473 C 324.887 108.329,324.882 107.325,325.133 106.856 C 325.581 106.018,325.424 104.870,324.960 105.600 M271.245 112.335 C 271.109 113.016,271.199 113.485,271.532 113.817 C 271.966 114.252,271.995 114.156,271.804 112.912 C 271.536 111.160,271.490 111.112,271.245 112.335 M271.040 118.318 C 270.497 118.857,270.369 119.160,270.640 119.263 C 271.427 119.559,270.882 121.697,269.682 123.020 C 269.373 123.362,269.120 123.866,269.120 124.140 C 269.119 125.199,264.377 129.361,263.344 129.209 C 262.468 129.081,262.235 129.285,262.379 130.051 C 262.409 130.211,262.250 130.455,262.026 130.593 C 261.802 130.732,261.697 130.924,261.793 131.019 C 261.888 131.115,262.274 130.907,262.650 130.557 C 263.026 130.206,263.543 129.920,263.799 129.920 C 264.056 129.920,264.654 129.596,265.128 129.200 C 267.557 127.171,268.480 126.298,268.480 126.029 C 268.480 125.867,268.768 125.424,269.120 125.046 C 269.472 124.668,269.760 124.107,269.760 123.799 C 269.760 123.490,269.900 123.151,270.071 123.045 C 270.669 122.676,272.300 117.910,271.934 117.603 C 271.882 117.559,271.480 117.881,271.040 118.318 M324.187 127.973 C 323.705 128.918,323.499 130.240,323.834 130.240 C 324.013 130.240,324.160 130.007,324.160 129.723 C 324.160 129.351,324.354 129.256,324.846 129.385 C 325.334 129.512,325.433 129.465,325.189 129.221 C 324.978 129.010,324.950 128.608,325.115 128.173 C 325.437 127.326,324.608 127.148,324.187 127.973 M89.751 131.153 C 90.074 131.215,90.824 131.539,91.418 131.873 C 93.643 133.122,147.520 132.721,147.520 131.456 C 147.520 130.632,148.501 131.441,149.247 132.880 C 149.727 133.804,150.625 135.280,151.243 136.160 C 151.861 137.040,152.464 137.976,152.583 138.240 C 152.938 139.027,155.340 142.551,155.600 142.667 C 155.732 142.725,155.840 142.983,155.840 143.240 C 155.840 143.497,156.416 144.487,157.120 145.440 C 157.824 146.393,158.400 147.312,158.400 147.483 C 158.400 147.654,158.760 148.077,159.200 148.423 C 159.640 148.769,160.000 149.272,160.000 149.542 C 160.000 149.811,160.324 150.439,160.720 150.938 C 161.519 151.945,162.078 152.798,162.567 153.760 C 162.900 154.415,163.609 155.510,166.000 159.065 C 166.748 160.177,167.360 161.263,167.360 161.477 C 167.360 161.691,167.474 161.915,167.613 161.973 C 167.947 162.114,169.920 165.072,169.920 165.433 C 169.920 165.587,170.280 165.997,170.720 166.343 C 171.160 166.689,171.520 167.192,171.520 167.462 C 171.520 167.731,171.880 168.379,172.320 168.902 C 172.760 169.425,173.120 169.986,173.120 170.150 C 173.120 170.314,173.480 170.787,173.920 171.200 C 174.360 171.613,174.720 172.197,174.720 172.497 C 174.720 172.796,174.944 173.228,175.218 173.455 C 175.493 173.683,175.922 174.313,176.172 174.855 C 176.717 176.034,177.245 176.863,178.000 177.723 C 178.308 178.074,178.560 178.465,178.560 178.593 C 178.560 178.721,179.347 179.995,180.310 181.425 C 182.068 184.037,182.723 185.921,181.760 185.600 C 180.971 185.337,63.986 185.256,63.517 185.518 C 63.280 185.651,89.506 185.722,121.797 185.677 C 161.748 185.620,180.707 185.699,181.127 185.924 C 181.571 186.161,181.928 186.140,182.393 185.850 C 183.050 185.440,183.283 184.640,182.745 184.640 C 182.583 184.640,182.356 184.208,182.240 183.680 C 182.124 183.152,181.913 182.720,181.771 182.720 C 181.629 182.720,181.287 182.252,181.012 181.680 C 180.736 181.108,180.143 180.250,179.695 179.774 C 179.247 179.298,178.880 178.694,178.880 178.433 C 178.880 178.172,178.730 177.865,178.547 177.752 C 178.094 177.472,176.640 175.139,176.640 174.693 C 176.640 174.494,176.280 173.905,175.840 173.382 C 175.400 172.859,175.040 172.246,175.040 172.020 C 175.040 171.794,174.680 171.339,174.240 171.009 C 173.800 170.678,173.440 170.211,173.440 169.970 C 173.440 169.729,173.086 169.112,172.653 168.598 C 172.221 168.083,171.933 167.487,172.014 167.271 C 172.095 167.056,171.729 166.635,171.200 166.335 C 170.655 166.025,170.240 165.524,170.240 165.174 C 170.240 164.835,170.024 164.379,169.760 164.160 C 169.496 163.941,169.280 163.588,169.280 163.377 C 169.280 163.165,168.920 162.653,168.480 162.240 C 168.040 161.827,167.680 161.309,167.680 161.089 C 167.680 160.869,167.320 160.261,166.880 159.738 C 166.440 159.215,166.078 158.664,166.076 158.514 C 166.073 158.363,165.784 157.880,165.433 157.440 C 164.285 156.002,163.257 154.426,162.509 152.960 C 162.106 152.168,161.448 151.113,161.048 150.615 C 160.647 150.118,160.320 149.526,160.320 149.300 C 160.320 149.074,159.960 148.619,159.520 148.289 C 159.080 147.958,158.720 147.459,158.720 147.180 C 158.720 146.900,158.360 146.333,157.920 145.920 C 157.480 145.507,157.120 144.995,157.120 144.783 C 157.120 144.572,156.904 144.219,156.640 144.000 C 156.376 143.781,156.160 143.346,156.160 143.034 C 156.160 142.722,155.802 142.128,155.366 141.714 C 154.929 141.299,154.569 140.802,154.566 140.610 C 154.562 140.417,154.276 140.002,153.928 139.687 C 153.581 139.373,153.200 138.811,153.083 138.438 C 152.965 138.065,152.242 136.861,151.475 135.761 C 150.708 134.662,150.080 133.573,150.080 133.342 C 150.080 133.110,149.789 132.608,149.433 132.227 C 149.078 131.845,148.826 131.452,148.873 131.353 C 148.921 131.254,135.506 131.143,119.062 131.106 C 102.619 131.070,89.429 131.091,89.751 131.153 M187.553 131.173 C 187.308 131.328,187.195 131.686,187.303 131.968 C 187.640 132.845,257.349 132.697,259.840 131.813 C 260.808 131.470,261.168 131.274,260.640 131.377 C 257.877 131.919,257.600 131.921,257.600 131.395 C 257.600 130.812,188.470 130.592,187.553 131.173 M322.976 132.640 C 322.365 135.690,321.624 138.113,320.935 139.311 C 320.749 139.636,320.663 139.969,320.745 140.051 C 320.827 140.134,320.489 141.004,319.994 141.985 C 319.499 142.966,319.173 143.974,319.269 144.225 C 319.365 144.476,319.154 144.884,318.800 145.132 C 318.445 145.380,317.963 146.235,317.728 147.032 C 317.493 147.828,317.202 148.480,317.082 148.480 C 316.963 148.480,316.564 149.056,316.197 149.760 C 315.512 151.075,315.599 151.475,316.355 150.480 C 316.588 150.172,316.784 149.678,316.790 149.382 C 316.795 149.085,317.088 148.752,317.440 148.640 C 317.792 148.528,318.080 148.181,318.080 147.868 C 318.080 147.183,318.992 145.280,319.319 145.280 C 319.447 145.280,319.727 144.430,319.942 143.392 C 320.308 141.618,320.911 140.854,321.607 141.284 C 322.107 141.593,322.284 140.799,321.819 140.333 C 321.322 139.837,322.018 136.320,322.613 136.320 C 322.760 136.320,322.880 135.845,322.880 135.264 C 322.880 134.683,323.033 134.055,323.221 133.867 C 323.408 133.680,323.516 132.895,323.461 132.123 L 323.360 130.720 322.976 132.640 M256.640 131.520 C 256.640 131.731,245.067 131.840,222.560 131.840 C 200.053 131.840,188.480 131.731,188.480 131.520 C 188.480 131.309,200.053 131.200,222.560 131.200 C 245.067 131.200,256.640 131.309,256.640 131.520 M89.317 132.151 C 89.279 132.637,86.160 138.938,85.116 140.640 C 84.792 141.168,84.516 141.775,84.503 141.989 C 84.491 142.203,84.048 143.059,83.520 143.892 C 82.992 144.724,82.560 145.600,82.560 145.838 C 82.560 146.076,82.164 146.637,81.680 147.085 L 80.800 147.899 81.839 147.208 C 82.411 146.828,82.973 146.131,83.089 145.659 C 83.204 145.186,83.395 144.728,83.513 144.640 C 83.630 144.552,84.191 143.544,84.758 142.400 C 85.867 140.163,86.102 139.709,86.661 138.720 C 86.860 138.368,87.258 137.576,87.546 136.960 C 87.834 136.344,88.424 135.154,88.857 134.315 C 89.291 133.477,89.580 132.541,89.500 132.235 C 89.399 131.850,89.343 131.824,89.317 132.151 M185.920 135.305 C 185.920 135.451,186.237 135.559,186.624 135.545 C 187.027 135.531,187.471 135.799,187.664 136.172 C 187.849 136.531,188.576 137.661,189.280 138.684 C 189.984 139.707,190.800 141.006,191.094 141.571 C 191.387 142.136,191.855 142.787,192.134 143.018 C 192.412 143.249,192.640 143.619,192.640 143.840 C 192.640 144.061,192.859 144.423,193.126 144.645 C 193.619 145.054,194.348 146.476,194.707 147.731 C 194.816 148.112,195.259 148.655,195.692 148.939 C 196.126 149.223,196.480 149.683,196.480 149.961 C 196.480 150.240,196.834 150.888,197.267 151.402 C 197.699 151.917,197.982 152.524,197.894 152.752 C 197.805 152.984,198.100 153.332,198.564 153.544 C 199.020 153.751,199.605 154.389,199.864 154.961 C 200.122 155.532,200.825 156.648,201.426 157.440 C 202.026 158.232,202.527 159.132,202.539 159.440 C 202.550 159.748,202.688 160.000,202.844 160.000 C 202.999 160.000,203.353 160.468,203.628 161.040 C 203.904 161.612,204.461 162.445,204.865 162.892 C 205.269 163.338,205.637 163.881,205.682 164.098 C 205.727 164.315,206.267 165.208,206.882 166.083 C 207.497 166.958,208.000 167.869,208.000 168.107 C 208.000 168.346,208.288 168.801,208.640 169.120 C 208.992 169.439,209.280 170.037,209.280 170.450 C 209.280 170.862,209.402 171.200,209.551 171.200 C 210.033 171.200,211.200 172.381,211.200 172.868 C 211.200 173.128,211.488 173.601,211.840 173.920 C 212.192 174.239,212.480 174.827,212.480 175.228 C 212.480 175.686,212.728 176.036,213.149 176.169 C 213.517 176.286,214.026 176.836,214.279 177.391 C 214.533 177.946,214.988 178.765,215.290 179.211 C 215.593 179.657,216.128 180.504,216.480 181.092 C 216.832 181.680,217.444 182.559,217.840 183.047 C 218.236 183.534,218.560 184.056,218.560 184.206 C 218.561 184.357,218.921 184.898,219.360 185.410 C 219.800 185.921,220.160 186.455,220.160 186.596 C 220.160 186.736,220.736 187.674,221.440 188.679 C 222.144 189.684,222.720 190.676,222.720 190.883 C 222.720 191.091,223.008 191.521,223.360 191.840 C 223.712 192.159,224.000 192.757,224.000 193.170 C 224.000 193.582,224.122 193.920,224.271 193.920 C 224.728 193.920,225.920 195.089,225.920 195.537 C 225.920 195.769,226.194 196.256,226.529 196.619 C 226.864 196.983,227.592 198.127,228.147 199.161 C 228.703 200.196,229.365 201.250,229.618 201.504 C 229.872 201.758,230.080 202.063,230.080 202.183 C 230.081 202.302,230.441 202.818,230.880 203.330 C 231.320 203.841,231.680 204.459,231.680 204.704 C 231.680 204.948,232.040 205.536,232.480 206.011 C 232.920 206.485,233.280 207.055,233.280 207.277 C 233.280 207.499,233.408 207.680,233.564 207.680 C 233.719 207.680,234.083 208.178,234.372 208.786 C 234.661 209.395,235.040 209.981,235.214 210.089 C 235.388 210.196,235.440 210.430,235.331 210.608 C 235.221 210.785,235.578 211.369,236.125 211.903 C 236.672 212.438,237.120 213.115,237.120 213.407 C 237.120 213.700,237.408 214.146,237.760 214.400 C 238.136 214.671,238.400 215.228,238.400 215.751 C 238.400 216.282,238.573 216.640,238.830 216.640 C 239.354 216.640,240.025 217.390,240.833 218.880 C 241.167 219.496,241.804 220.504,242.250 221.120 C 242.695 221.736,243.260 222.636,243.504 223.120 C 243.748 223.604,244.068 224.000,244.214 224.000 C 244.360 224.000,244.480 224.205,244.480 224.455 C 244.480 224.706,244.810 225.318,245.212 225.815 C 245.615 226.313,246.122 227.080,246.338 227.520 C 246.554 227.960,247.156 228.896,247.675 229.600 C 248.194 230.304,248.624 231.066,248.629 231.293 C 248.635 231.521,248.928 232.016,249.280 232.394 C 249.632 232.772,249.920 233.332,249.920 233.639 C 249.920 233.946,250.194 234.284,250.529 234.390 C 250.864 234.497,251.360 235.046,251.631 235.612 C 251.902 236.177,252.352 236.928,252.630 237.280 C 253.173 237.964,254.416 239.930,256.480 243.367 C 257.184 244.539,258.084 245.902,258.480 246.395 C 258.876 246.889,259.200 247.434,259.200 247.607 C 259.200 247.780,259.425 248.108,259.699 248.336 C 260.318 248.849,261.478 251.200,261.275 251.529 C 261.193 251.661,261.496 252.013,261.949 252.310 C 262.403 252.607,262.969 253.318,263.208 253.890 C 263.447 254.463,263.867 255.117,264.142 255.345 C 264.416 255.572,264.640 256.002,264.640 256.299 C 264.640 256.596,265.072 257.159,265.600 257.549 C 266.128 257.940,266.560 258.477,266.560 258.743 C 266.560 259.009,266.862 259.545,267.231 259.933 C 267.600 260.322,268.031 260.928,268.190 261.280 C 268.349 261.632,268.659 262.200,268.879 262.541 C 270.463 264.997,271.566 266.722,271.834 267.163 C 272.006 267.447,272.811 268.688,273.621 269.920 C 274.432 271.152,275.186 272.412,275.298 272.720 C 275.549 273.415,276.982 273.464,277.646 272.800 C 278.303 272.142,334.717 272.063,334.725 272.720 C 334.728 272.986,334.831 272.960,335.032 272.642 C 335.296 272.225,335.388 272.234,335.747 272.716 C 336.201 273.322,337.211 272.984,336.822 272.356 C 336.429 271.720,276.661 271.865,276.023 272.503 C 275.694 272.832,275.520 272.872,275.520 272.619 C 275.520 272.406,274.895 271.280,274.130 270.116 C 273.366 268.952,272.682 267.856,272.610 267.680 C 272.491 267.387,271.278 265.497,268.195 260.800 C 267.560 259.832,266.968 258.881,266.880 258.686 C 266.792 258.491,266.396 257.915,266.000 257.406 C 264.742 255.789,263.372 253.613,263.366 253.223 C 263.363 253.016,263.000 252.563,262.560 252.217 C 262.120 251.871,261.760 251.424,261.760 251.223 C 261.760 250.835,261.493 250.373,259.303 246.970 C 258.543 245.788,257.920 244.738,257.920 244.637 C 257.920 244.535,257.344 243.673,256.640 242.720 C 255.936 241.767,255.360 240.912,255.360 240.820 C 255.360 240.728,254.820 239.842,254.160 238.852 C 253.500 237.862,252.744 236.678,252.480 236.221 C 252.216 235.764,251.676 235.025,251.280 234.578 C 250.884 234.132,250.560 233.643,250.560 233.493 C 250.560 233.342,250.236 232.768,249.840 232.216 C 248.871 230.867,248.371 230.032,248.128 229.360 C 248.016 229.052,247.825 228.800,247.702 228.800 C 247.579 228.800,247.136 228.188,246.719 227.440 C 246.301 226.692,245.510 225.432,244.960 224.640 C 244.410 223.848,243.609 222.553,243.180 221.762 C 242.751 220.971,242.155 220.051,241.856 219.719 C 241.557 219.386,241.091 218.649,240.822 218.081 C 240.552 217.513,240.103 216.858,239.823 216.625 C 239.542 216.393,239.000 215.634,238.617 214.938 C 237.466 212.849,237.236 212.487,236.590 211.748 C 236.249 211.359,235.762 210.608,235.507 210.080 C 235.252 209.552,234.358 208.087,233.521 206.824 C 232.685 205.562,232.000 204.440,232.000 204.331 C 232.000 204.222,231.454 203.383,230.788 202.466 C 229.763 201.058,227.746 197.867,226.360 195.463 C 226.162 195.120,225.650 194.452,225.221 193.980 C 224.792 193.507,224.264 192.760,224.048 192.320 C 223.565 191.337,223.142 190.646,221.913 188.832 C 221.389 188.058,220.852 187.230,220.720 186.992 C 219.894 185.505,218.672 183.560,216.400 180.118 C 215.476 178.718,214.720 177.457,214.720 177.316 C 214.720 177.175,214.417 176.785,214.046 176.450 C 213.675 176.114,213.063 175.280,212.686 174.597 C 211.511 172.467,211.309 172.157,210.605 171.407 C 210.228 171.007,209.920 170.496,209.920 170.274 C 209.920 170.051,209.056 168.607,208.000 167.065 C 206.944 165.524,206.080 164.171,206.080 164.060 C 206.080 163.949,205.662 163.243,205.151 162.489 C 204.640 161.736,203.133 159.439,201.801 157.385 C 200.469 155.331,199.225 153.555,199.037 153.438 C 198.848 153.321,198.467 152.662,198.192 151.973 C 197.916 151.284,197.562 150.720,197.405 150.720 C 197.248 150.720,197.120 150.561,197.120 150.366 C 197.120 150.171,196.720 149.487,196.230 148.846 C 195.741 148.205,195.129 147.248,194.870 146.720 C 194.612 146.192,193.457 144.320,192.305 142.560 C 191.153 140.800,189.759 138.640,189.209 137.760 C 187.692 135.335,185.920 134.013,185.920 135.305 M81.040 148.372 C 80.820 148.461,80.640 148.787,80.640 149.097 C 80.640 149.407,80.352 149.921,80.000 150.240 C 79.648 150.559,79.349 151.049,79.337 151.330 C 79.324 151.610,79.037 152.272,78.700 152.800 C 78.363 153.328,77.997 153.976,77.886 154.240 C 77.776 154.504,77.523 155.116,77.325 155.600 C 77.126 156.084,76.855 156.480,76.722 156.480 C 76.589 156.480,76.480 156.619,76.480 156.790 C 76.480 156.960,76.696 157.017,76.960 156.916 C 77.224 156.814,77.440 156.467,77.440 156.145 C 77.440 155.822,77.584 155.469,77.760 155.360 C 77.936 155.251,78.080 154.883,78.080 154.541 C 78.080 154.200,78.231 153.920,78.416 153.920 C 78.729 153.920,79.899 151.576,79.638 151.474 C 79.573 151.448,79.755 151.160,80.041 150.834 C 80.519 150.290,81.734 148.126,81.528 148.185 C 81.480 148.199,81.260 148.283,81.040 148.372 M314.591 152.567 C 314.168 153.223,313.556 154.150,313.231 154.627 C 312.906 155.104,312.640 155.644,312.640 155.828 C 312.640 156.011,312.082 156.666,311.399 157.283 C 310.716 157.899,309.940 158.854,309.674 159.404 C 309.144 160.497,301.601 168.316,300.218 169.205 C 299.746 169.509,298.280 170.554,296.960 171.527 C 293.909 173.777,289.704 176.326,285.882 178.243 C 284.236 179.068,282.980 179.834,283.091 179.944 C 283.201 180.054,283.098 180.400,282.861 180.712 C 282.519 181.164,282.517 181.204,282.854 180.905 C 283.087 180.699,283.493 180.613,283.756 180.713 C 284.114 180.851,284.184 180.739,284.034 180.267 C 283.840 179.657,285.911 178.240,286.995 178.240 C 287.196 178.240,287.360 178.130,287.360 177.995 C 287.360 177.861,287.972 177.489,288.720 177.168 C 290.268 176.504,295.145 173.466,295.307 173.065 C 295.365 172.919,295.581 172.794,295.787 172.787 C 295.992 172.780,296.659 172.348,297.268 171.827 C 297.877 171.306,298.568 170.880,298.804 170.880 C 299.429 170.880,310.400 159.861,310.400 159.233 C 310.400 158.940,310.976 158.171,311.680 157.523 C 312.384 156.876,312.960 156.171,312.960 155.958 C 312.960 155.744,313.320 155.141,313.760 154.618 C 314.200 154.095,314.560 153.556,314.560 153.419 C 314.560 153.282,314.791 152.915,315.073 152.604 C 315.355 152.292,315.535 151.888,315.473 151.705 C 315.411 151.523,315.014 151.911,314.591 152.567 M75.881 157.840 C 75.972 158.363,75.174 160.000,74.829 160.000 C 74.681 160.000,74.560 160.352,74.560 160.781 C 74.560 161.211,74.416 161.651,74.240 161.760 C 74.064 161.869,73.928 162.273,73.937 162.659 C 73.949 163.108,74.187 162.784,74.601 161.760 C 74.956 160.880,75.380 160.112,75.543 160.053 C 75.707 159.995,75.840 159.671,75.840 159.333 C 75.840 158.996,75.984 158.720,76.160 158.720 C 76.336 158.720,76.480 158.432,76.480 158.080 C 76.480 157.728,76.330 157.440,76.146 157.440 C 75.962 157.440,75.843 157.620,75.881 157.840 M72.960 163.693 C 72.960 164.396,71.727 166.720,71.353 166.720 C 71.181 166.720,71.040 167.058,71.040 167.470 C 71.040 167.883,70.752 168.481,70.400 168.800 C 70.048 169.119,69.760 169.543,69.760 169.744 C 69.760 170.248,67.224 175.307,66.858 175.534 C 66.694 175.635,66.560 176.057,66.560 176.472 C 66.560 176.887,66.452 177.275,66.320 177.333 C 66.188 177.392,65.601 178.376,65.014 179.520 C 64.428 180.664,63.717 181.780,63.433 182.000 C 63.150 182.220,63.053 182.398,63.219 182.395 C 63.758 182.386,64.198 181.940,64.790 180.800 C 65.109 180.184,65.491 179.464,65.638 179.200 C 65.786 178.936,66.419 177.712,67.045 176.480 C 67.672 175.248,68.307 174.024,68.455 173.760 C 68.604 173.496,68.916 172.848,69.149 172.320 C 69.382 171.792,69.773 171.117,70.018 170.820 C 70.262 170.523,70.380 170.146,70.279 169.983 C 70.178 169.819,70.380 169.428,70.728 169.113 C 71.075 168.798,71.360 168.208,71.360 167.802 C 71.360 167.390,71.644 166.911,72.000 166.720 C 72.352 166.532,72.640 166.103,72.640 165.768 C 72.640 165.432,72.767 165.079,72.922 164.984 C 73.307 164.746,73.579 163.200,73.236 163.200 C 73.084 163.200,72.960 163.422,72.960 163.693 M280.320 181.220 C 280.320 181.452,280.968 182.607,281.760 183.788 C 282.552 184.969,283.200 186.049,283.200 186.188 C 283.200 186.327,283.632 186.854,284.160 187.360 C 284.688 187.866,285.120 188.411,285.120 188.572 C 285.120 189.032,287.738 192.960,288.045 192.960 C 288.196 192.960,288.320 193.187,288.320 193.464 C 288.320 193.741,289.004 195.001,289.840 196.264 C 290.676 197.527,291.418 198.704,291.489 198.880 C 291.560 199.056,292.317 200.237,293.169 201.506 C 294.022 202.774,294.720 203.962,294.720 204.146 C 294.720 204.329,294.864 204.480,295.040 204.480 C 295.216 204.480,295.360 204.683,295.360 204.932 C 295.360 205.180,295.792 205.747,296.320 206.191 C 296.848 206.635,297.280 207.264,297.280 207.588 C 297.280 207.912,297.499 208.490,297.766 208.871 C 298.330 209.677,300.161 211.047,300.158 210.662 C 300.157 210.518,299.756 210.173,299.267 209.895 C 298.681 209.561,298.226 208.908,297.932 207.975 C 297.686 207.197,297.079 206.226,296.582 205.817 C 296.086 205.408,295.680 204.918,295.680 204.727 C 295.680 204.536,295.320 203.908,294.880 203.332 C 294.440 202.755,294.080 202.147,294.080 201.981 C 294.080 201.814,293.863 201.498,293.598 201.278 C 293.332 201.058,292.733 200.176,292.267 199.319 C 291.800 198.461,291.297 197.760,291.149 197.760 C 291.001 197.760,290.880 197.571,290.880 197.340 C 290.880 197.110,290.590 196.609,290.235 196.229 C 289.619 195.567,288.873 194.118,288.801 193.440 C 288.782 193.264,288.306 192.637,287.743 192.046 C 287.180 191.456,286.720 190.794,286.720 190.576 C 286.720 190.358,286.432 189.919,286.080 189.600 C 285.728 189.281,285.440 188.782,285.440 188.491 C 285.440 188.199,285.008 187.641,284.480 187.251 C 283.952 186.860,283.520 186.257,283.520 185.910 C 283.520 185.564,283.376 185.280,283.200 185.280 C 283.024 185.280,282.880 185.069,282.880 184.811 C 282.880 184.553,282.448 183.850,281.920 183.249 C 280.772 181.941,280.723 181.515,281.680 181.130 C 282.334 180.867,282.304 180.839,281.360 180.820 C 280.704 180.807,280.320 180.955,280.320 181.220 M299.840 211.379 C 299.840 211.494,300.200 212.015,300.640 212.538 C 301.080 213.061,301.440 213.328,301.440 213.130 C 301.440 212.933,301.080 212.411,300.640 211.971 C 300.200 211.531,299.840 211.265,299.840 211.379 M301.441 213.990 C 301.440 214.479,304.103 218.621,304.779 219.182 C 305.054 219.411,305.280 219.860,305.280 220.180 C 305.280 220.500,305.410 220.843,305.569 220.941 C 305.729 221.040,306.295 221.876,306.828 222.800 C 307.939 224.726,309.735 226.997,309.039 225.595 C 308.820 225.153,308.316 224.339,307.920 223.786 C 307.524 223.233,307.200 222.686,307.200 222.569 C 307.200 222.453,306.840 221.885,306.400 221.308 C 305.960 220.732,305.600 220.039,305.600 219.769 C 305.600 219.499,305.366 219.084,305.080 218.847 C 304.794 218.610,303.859 217.332,303.001 216.008 C 302.143 214.684,301.441 213.776,301.441 213.990 M205.031 220.560 C 204.952 220.780,205.107 221.392,205.375 221.920 C 205.659 222.478,205.921 222.708,206.002 222.469 C 206.078 222.243,205.967 221.849,205.754 221.593 C 205.542 221.337,205.452 220.910,205.554 220.644 C 205.656 220.378,205.612 220.160,205.457 220.160 C 205.301 220.160,205.109 220.340,205.031 220.560 M63.681 222.018 C 63.680 222.249,64.040 223.082,64.480 223.870 C 64.920 224.658,65.280 225.448,65.280 225.625 C 65.280 225.802,65.568 226.256,65.920 226.634 C 66.660 227.428,66.761 227.178,66.115 226.149 C 65.871 225.759,65.223 224.576,64.676 223.520 C 64.129 222.464,63.681 221.788,63.681 222.018 M206.764 224.239 C 207.550 225.638,208.640 227.077,208.640 226.716 C 208.640 226.416,206.425 223.040,206.228 223.040 C 206.153 223.040,206.394 223.580,206.764 224.239 M309.440 226.864 C 309.440 227.019,309.872 227.553,310.400 228.052 C 310.928 228.550,311.360 229.132,311.360 229.345 C 311.360 229.732,312.393 231.454,313.529 232.960 C 313.861 233.400,314.336 234.228,314.584 234.800 C 314.833 235.372,315.112 235.840,315.205 235.840 C 315.298 235.840,315.727 236.488,316.160 237.280 C 316.593 238.072,317.058 238.720,317.193 238.720 C 317.329 238.720,317.440 238.867,317.440 239.046 C 317.440 239.226,317.836 239.969,318.320 240.697 C 318.804 241.426,319.448 242.395,319.751 242.851 C 320.054 243.307,320.596 244.184,320.954 244.800 C 322.005 246.604,322.358 247.142,323.120 248.102 C 323.516 248.601,323.840 249.190,323.840 249.412 C 323.840 249.633,324.272 250.199,324.800 250.670 C 325.328 251.140,325.760 251.671,325.760 251.849 C 325.760 252.027,326.588 253.449,327.600 255.009 C 328.612 256.569,329.728 258.323,330.080 258.907 C 330.432 259.491,330.866 260.192,331.044 260.464 C 331.222 260.737,331.642 261.392,331.977 261.920 C 333.841 264.856,334.907 266.412,335.120 266.507 C 335.252 266.565,335.360 266.879,335.360 267.203 C 335.360 267.818,336.782 269.136,337.403 269.098 C 337.599 269.086,337.444 268.924,337.057 268.737 C 336.670 268.550,336.120 267.948,335.833 267.399 C 334.925 265.655,334.516 264.979,334.019 264.402 C 333.753 264.093,333.199 263.228,332.789 262.480 C 332.378 261.732,331.925 261.120,331.781 261.120 C 331.637 261.120,331.520 260.931,331.520 260.700 C 331.520 260.470,331.268 259.993,330.960 259.642 C 330.080 258.637,329.288 256.991,329.464 256.532 C 329.553 256.302,329.291 255.962,328.883 255.776 C 328.475 255.590,327.798 254.772,327.380 253.959 C 326.962 253.146,326.498 252.480,326.350 252.480 C 326.201 252.480,326.080 252.130,326.080 251.702 C 326.080 251.217,325.850 250.850,325.471 250.730 C 325.136 250.623,324.624 250.074,324.333 249.508 C 323.818 248.509,322.585 246.637,321.926 245.854 C 321.746 245.641,321.600 245.263,321.600 245.013 C 321.600 244.763,321.387 244.381,321.126 244.165 C 320.865 243.948,319.981 242.636,319.162 241.248 C 318.342 239.860,317.476 238.562,317.236 238.363 C 316.996 238.164,316.800 237.803,316.800 237.561 C 316.800 237.318,316.656 237.120,316.480 237.120 C 316.304 237.120,316.160 236.891,316.160 236.610 C 316.160 236.330,315.872 235.735,315.520 235.287 C 315.168 234.840,314.880 234.268,314.880 234.016 C 314.880 233.765,314.448 233.195,313.920 232.751 C 313.392 232.307,312.960 231.690,312.960 231.381 C 312.960 231.072,312.672 230.559,312.320 230.240 C 311.968 229.921,311.680 229.472,311.680 229.241 C 311.680 229.010,311.176 228.317,310.560 227.701 C 309.944 227.085,309.440 226.708,309.440 226.864 M209.279 227.999 C 209.692 228.438,210.089 228.738,210.161 228.665 C 210.319 228.508,209.054 227.200,208.744 227.200 C 208.626 227.200,208.866 227.559,209.279 227.999 M68.177 230.880 C 68.736 231.936,69.994 234.312,70.972 236.160 C 71.950 238.008,73.094 240.220,73.513 241.075 C 73.933 241.931,74.341 242.565,74.421 242.485 C 74.643 242.264,68.359 230.206,67.622 229.440 C 67.368 229.176,67.618 229.824,68.177 230.880 M210.350 229.532 C 210.583 230.200,214.429 236.160,214.627 236.160 C 214.788 236.160,213.365 233.508,213.081 233.280 C 212.971 233.192,212.267 232.184,211.516 231.040 C 210.765 229.896,210.240 229.218,210.350 229.532 M214.878 236.800 C 215.032 237.064,215.600 237.947,216.139 238.763 C 216.679 239.578,218.040 241.706,219.165 243.491 C 220.289 245.277,221.273 246.674,221.351 246.596 C 221.429 246.518,220.643 245.182,219.604 243.627 C 218.566 242.072,217.257 239.989,216.696 238.997 C 216.135 238.006,215.433 236.998,215.137 236.757 C 214.672 236.381,214.636 236.387,214.878 236.800 M74.560 243.161 C 74.560 243.358,74.704 243.520,74.880 243.520 C 75.056 243.520,75.211 243.772,75.223 244.080 C 75.236 244.388,75.523 245.072,75.860 245.600 C 76.197 246.128,76.560 246.776,76.667 247.040 C 76.774 247.304,76.921 247.664,76.994 247.840 C 77.067 248.016,77.403 248.592,77.740 249.120 C 78.077 249.648,78.364 250.314,78.377 250.601 C 78.397 251.049,79.360 252.187,79.360 251.763 C 79.360 251.494,76.120 245.296,75.812 244.976 C 75.652 244.809,75.520 244.430,75.520 244.135 C 75.520 243.840,75.304 243.419,75.040 243.200 C 74.708 242.925,74.560 242.913,74.560 243.161 M222.013 247.889 C 222.402 248.445,222.726 249.021,222.733 249.169 C 222.740 249.318,223.172 249.939,223.693 250.548 C 224.214 251.157,224.640 251.762,224.640 251.892 C 224.640 252.022,225.590 253.539,226.751 255.264 C 227.912 256.989,228.776 258.184,228.671 257.920 C 228.566 257.656,228.392 257.188,228.283 256.880 C 228.174 256.572,227.958 256.320,227.803 256.320 C 227.647 256.320,227.520 256.116,227.520 255.867 C 227.520 255.617,227.412 255.365,227.280 255.307 C 226.986 255.176,224.960 251.894,224.960 251.548 C 224.960 251.411,224.657 251.025,224.286 250.690 C 223.915 250.354,223.350 249.566,223.029 248.939 C 222.709 248.311,222.190 247.591,221.876 247.339 C 221.447 246.994,221.481 247.131,222.013 247.889 M79.398 252.364 C 79.910 253.598,83.014 259.492,83.105 259.402 C 83.279 259.227,79.978 252.504,79.605 252.273 C 79.424 252.162,79.332 252.203,79.398 252.364 M230.575 261.200 C 231.546 262.652,232.434 264.056,232.549 264.320 C 232.830 264.964,236.521 270.400,236.677 270.400 C 237.030 270.400,236.702 269.693,235.920 268.771 C 235.436 268.200,234.752 267.249,234.400 266.658 C 232.449 263.384,229.265 258.560,229.055 258.560 C 228.921 258.560,229.605 259.748,230.575 261.200 M83.200 259.928 C 83.200 260.047,83.487 260.616,83.839 261.192 C 84.190 261.769,84.478 262.492,84.479 262.800 C 84.479 263.108,84.597 263.360,84.741 263.360 C 85.068 263.360,86.400 265.824,86.400 266.430 C 86.400 266.678,86.522 266.880,86.671 266.880 C 86.821 266.880,87.210 267.492,87.537 268.240 C 88.292 269.969,89.280 271.323,89.280 270.630 C 89.280 270.357,89.155 270.085,89.001 270.027 C 88.848 269.968,87.613 267.760,86.257 265.120 C 83.985 260.700,83.200 259.366,83.200 259.928 M236.800 270.907 C 236.800 271.291,238.696 272.451,238.934 272.212 C 239.231 271.916,238.704 271.360,238.125 271.360 C 237.819 271.360,237.395 271.187,237.184 270.976 C 236.973 270.765,236.800 270.734,236.800 270.907 M89.462 272.133 C 89.592 272.650,89.536 272.960,89.315 272.960 C 89.120 272.960,89.260 273.260,89.627 273.627 C 89.993 273.993,90.380 274.207,90.485 274.101 C 90.591 273.996,90.507 273.739,90.299 273.531 C 90.090 273.322,89.920 272.829,89.920 272.435 C 89.920 272.040,89.770 271.625,89.587 271.512 C 89.371 271.379,89.327 271.597,89.462 272.133 " stroke="none" fill="red" fill-rule="evenodd"></path></g></svg>