<svg width="89" height="37" viewBox="0 0 89 37" fill="none" xmlns="http://www.w3.org/2000/svg">
<g clip-path="url(#clip0_17_125)">
<path d="M20.504 33.5V15.164C20.504 14.076 20.168 13.148 19.496 12.38C18.824 11.612 17.848 11.228 16.568 11.228V7.58C18.104 7.58 19.304 7.836 20.168 8.348C21.032 8.86 21.768 9.5 22.376 10.268C23.016 9.468 23.768 8.828 24.632 8.348C25.496 7.836 26.68 7.58 28.184 7.58V11.228C26.904 11.228 25.928 11.628 25.256 12.428C24.616 13.196 24.296 14.108 24.296 15.164V33.5H20.504ZM6.824 33.5V14.684C6.824 14.012 6.952 13.276 7.208 12.476C7.496 11.676 7.944 10.908 8.552 10.172C9.16 9.404 9.944 8.78 10.904 8.3C11.864 7.82 13.032 7.58 14.408 7.58V11.228C13.16 11.228 12.2 11.628 11.528 12.428C10.888 13.228 10.568 14.14 10.568 15.164V33.5H6.824ZM34.184 33.5V15.164C34.184 14.044 33.848 13.116 33.176 12.38C32.504 11.612 31.544 11.228 30.296 11.228V7.58C31.672 7.58 32.84 7.836 33.8 8.348C34.792 8.828 35.592 9.452 36.2 10.22C36.808 10.956 37.256 11.74 37.544 12.572C37.832 13.372 37.976 14.076 37.976 14.684V33.5H34.184Z" fill="white"/>
<rect x="41" y="7.5" width="26" height="26" rx="13" fill="#FF7E21"/>
<path d="M70.12 33.5V12.14H73.2V33.5H70.12ZM71.64 10.38C71.16 10.38 70.7333 10.2067 70.36 9.86C69.9867 9.48667 69.8 9.06 69.8 8.58C69.8 8.1 69.9867 7.68667 70.36 7.34C70.7333 6.96666 71.16 6.78 71.64 6.78C72.12 6.78 72.5333 6.96666 72.88 7.34C73.2533 7.68667 73.44 8.1 73.44 8.58C73.44 9.06 73.2533 9.48667 72.88 9.86C72.5333 10.2067 72.12 10.38 71.64 10.38ZM79.4986 33.692C78.7946 33.692 78.1866 33.452 77.6746 32.972C77.1946 32.46 76.9546 31.852 76.9546 31.148C76.9546 30.444 77.1946 29.836 77.6746 29.324C78.1866 28.812 78.7946 28.556 79.4986 28.556C80.2346 28.556 80.8426 28.812 81.3226 29.324C81.8346 29.836 82.0906 30.444 82.0906 31.148C82.0906 31.852 81.8346 32.46 81.3226 32.972C80.8426 33.452 80.2346 33.692 79.4986 33.692Z" fill="white"/>
</g>
<defs>
<clipPath id="clip0_17_125">
<rect width="89" height="37" fill="white"/>
</clipPath>
</defs>
</svg>
